<?xml version="1.0" encoding="utf-8"?>
<!-- Generator: Adobe Illustrator 18.1.1, SVG Export Plug-In . SVG Version: 6.00 Build 0)  -->
<svg version="1.1" id="Layer_1" xmlns="http://www.w3.org/2000/svg" xmlns:xlink="http://www.w3.org/1999/xlink" x="0px" y="0px"
	 viewBox="0 0 250 160" enable-background="new 0 0 250 160" xml:space="preserve">
<g opacity="0.25">
	<desc  xmlns:shape="http://adobe.com/products/shape">
		<shape:version>1.1.2</shape:version>
		<shape:captureDetail>0.750000</shape:captureDetail>
		<shape:source>1</shape:source>
	</desc>
	<path fill="#FFFFFF" d="M179.9,49.1c20.8-2.8,41.9-3.3,62.7-1.5c1.1,0.1,1.7-1.3,1.8-2.4c0.7-5.6,1.4-11.3,2.1-16.9
		c0.4-3.5,0.8-7.3-1.2-10.3c-2.9,7.6-3.8,15.8-2.8,23.8c0.1,0.9-1.4,1.4-2.1,0.8c-0.8-0.6-0.9-1.7-0.9-2.6
		c-0.3-6.8,0.4-13.7,2.2-20.3c0.4-1.7,1.3-3.6,3-3.9c2.2-0.4,3.8,1.9,4.3,4c2.5,9.9-4.4,20.8-0.1,30.1c-22.3-2.1-44.8-1.5-66.9,1.6
		c-4.1,0.6-8.5,1.2-12.4-0.3c2-2.7,2.2-6.3,2.3-9.6c0.4-9,0.8-18,1.2-27c0.1-1.5,1.9-2.1,3.4-2.3c19.5-3.3,39.6-5.5,59.2-2.7
		c5,0.7,10.1,1.8,14.3,4.6c-23.1-5-47.3-4.8-70.3,0.4c-0.8,0.2-1.6,0.4-2,1.1c-0.2,0.4-0.3,0.8-0.3,1.3c-1,9.2-2.1,18.4-3.1,27.6
		c-0.1,1.2-0.2,2.5,0.5,3.5C175.8,49.4,178,49.3,179.9,49.1z"/>
	<path fill="#FFFFFF" d="M99.1,121.1c7.3,1.2,14.3,4.4,19.8,9.2c0.2,0.2,0.5,0.4,0.5,0.7c0,0.3-0.3,0.6-0.6,0.8
		c-6,4-12.4,7.4-19.1,10.1c-1.5,0.6-4.1,0.3-3.6-1.2c2.9-1.5,5.9-3,8.8-4.5c0.4-0.2,0.7-0.4,0.9-0.8c0.4-1-1.2-1.6-2.4-1.5
		c-20.1,1.2-40.1,3.1-60,5.8c-4.1,0.6-8.5,1.1-12.3-0.4c1.8-1.4,1.9-4,1.8-6.3c-0.6-14.4-1.3-28.7-1.9-43.1
		c-0.1-1.4,2.2-1.8,3.2-0.9c1,0.9,1.1,2.5,1.1,3.8c0.2,13.1,0.3,26.2,0.5,39.3c0,2.3,1,5.5,3.4,5.2c23.9-3.9,48.3-5.6,72.5-5.1
		c1.2,0,1.9-1.7,1.3-2.7c-0.6-1.1-1.8-1.6-3-2.1c-2.9-1.2-5.8-2.3-8.7-3.5C100,123.6,98.4,122.4,99.1,121.1z"/>
	<path fill="#FFFFFF" d="M3.8,61.4c0,0.8,0,1.7,0.5,2.4c0.9,1.3,2.8,1.3,4.5,1.2c14.7-1.1,29.4-2.2,44.1-3.2
		c2.5-0.2,5.9,0.2,6.3,2.6c-18.2,1.3-36.5,2.7-54.7,4C2.5,68.5-0.1,68,0,66.2C0.9,47.6,1,29,0.3,10.4c0-1.3,1.7-1.8,3-1.9
		C23.5,6.7,43.8,6,64,6.4c1.2,0,3,1,2.1,1.9c-20,0-40,0.8-59.9,2.5c-0.7,0.1-1.4,0.1-1.9,0.6C3.6,12,3.5,13,3.5,14
		C3.6,29.8,3.7,45.6,3.8,61.4z"/>
	<path fill="#FFFFFF" d="M233.7,115.2c-1.3-1.3-3.4-1.5-5.3-1.7c-27.9-2-55.9-2.6-83.8-2c-1.2,13.1-2.1,26.2-2.5,39.3
		c0,1-1.6,1.2-2.3,0.5c-0.7-0.7-0.7-1.8-0.7-2.7c0.3-11.7,0.7-23.4,1-35.1c0-1.1,0.1-2.2,0.7-3.1c1-1.5,3.2-1.7,5-1.7
		c28.3-0.6,56.6,0.3,84.8,2.6c1.2,0.1,2.5,0.2,3.6,0.7c2.4,1.1,3.6,3.8,3.7,6.4c0.1,2.6-0.8,5.1-1.4,7.6c-1.8,7.3-1.9,15-0.1,22.3
		c-1.6,0.4-2.7-1.5-3.1-3c-1.9-7.6-0.4-15.6,1.2-23.3C235.1,119.8,235.5,116.9,233.7,115.2L233.7,115.2z"/>
	<path fill="#FFFFFF" d="M138.1,41.7c-1.2,0.2-3.1-0.2-2.7-1.3c3.3-1.1,6.6-2.3,10-3.4c1.5-0.5,3.2-2.2,2-3.2
		c-19.8,0.7-39.6,1.3-59.3,2c-1.3,0-3.1-0.2-3.4-1.4c22.7-1.9,45.6-2.6,68.4-1.9c0-1.9-2.6-2.7-4.6-2.9c-2-0.2-4.5-0.5-5-2.4
		c6.7,0,13.3,1.1,19.7,3.1C155.9,35.9,147.2,39.9,138.1,41.7z"/>
	<path fill="#FFFFFF" d="M133.7,157c0.3-1.4,2.2-1.7,3.6-1.7c26.5,0.6,53,1.2,79.5,1.8c10.8,0.3,21.8,0.5,32.3,2.9
		c-11.8-0.2-23.6-0.4-35.5-0.7c-23.3-0.4-46.6-0.9-69.9-1.3C140.5,158,137,157.9,133.7,157z"/>
	<path fill="#FFFFFF" d="M73.8,61c-1.8,0.3-2.7-1.9-2.9-3.6c-2.6-19-3.2-38.2-1.8-57.3c1.1-0.3,2.2,0.5,2.7,1.5
		c0.5,1,0.4,2.1,0.3,3.2C71,23.5,71.5,42.4,73.8,61z"/>
	<path fill="#FFFFFF" d="M37.1,23.8c-3.9,1.8-8.1,4-9.6,7.9c-0.8,0.4-1.9-0.3-2-1.2c-0.1-0.9,0.4-1.8,1-2.5
		c3.7-4.7,10.2-6.1,16.2-7.2c1.2-0.2,2.9-0.2,3.3,0.9c0.3,0.9-0.5,1.8-1.2,2.5c-4.9,4.5-9.5,9.3-13.8,14.3c-0.3,0.3-0.6,0.7-0.6,1.1
		c-0.2,1.2,1.4,1.9,2.7,2.1c1.3,0.1,2.9,0.4,3.2,1.6c-2.1,0.4-4.3,0.3-6.5-0.1c-1-0.2-2.1-0.6-2.7-1.4c-1.2-1.7,0.2-3.9,1.6-5.5
		c3-3.4,6.1-6.8,9.1-10.2c0.3-0.4,0.7-0.8,0.8-1.3c0.1-0.5-0.2-1.1-0.7-1.2C37.6,23.6,37.3,23.7,37.1,23.8z"/>
	<path fill="#FFFFFF" d="M33.4,54.7c-1.2,1.1-3.1,1.5-4.5,0.8c-1.4-0.8-2-2.9-0.9-4c0.3-0.3,0.6-0.5,1-0.6c0.5-0.1,1,0,1.5,0.2
		c0.8,0.2,1.7,0.5,2.5,0.7c0.3,0.1,0.6,0.2,0.8,0.3C34.6,52.7,34.1,54,33.4,54.7z"/>
</g>
</svg>
