<?xml version="1.0" encoding="utf-8"?>
<!-- Generator: Adobe Illustrator 18.1.1, SVG Export Plug-In . SVG Version: 6.00 Build 0)  -->
<svg version="1.1" id="Layer_1" xmlns="http://www.w3.org/2000/svg" xmlns:xlink="http://www.w3.org/1999/xlink" x="0px" y="0px"
	 viewBox="0 0 400 200" enable-background="new 0 0 400 200" xml:space="preserve">
<g>
	<g enable-background="new    ">
		<g>
			<polygon fill="#69C8B6" points="102,101 101.7,137.9 75.9,148.8 76.1,111.3 			"/>
		</g>
		<g>
			<polygon fill="#4A8D81" points="75.9,148.8 46.2,139.1 46.1,102.1 76.1,111.3 			"/>
		</g>
		<g>
			<polygon fill="#5DB2A2" points="76.1,111.3 46.1,102.1 72.1,92.1 102,101 			"/>
		</g>
	</g>
</g>
<g>
	<g enable-background="new    ">
		<g>
			<polygon fill="#69C8B6" points="76.1,111.3 75.7,148.2 50,159.1 50.1,121.6 			"/>
		</g>
		<g>
			<polygon fill="#4A8D81" points="50,159.1 20.2,149.5 20.1,112.5 50.1,121.6 			"/>
		</g>
		<g>
			<polygon fill="#5DB2A2" points="50.1,121.6 20.1,112.5 46.2,102.5 76.1,111.3 			"/>
		</g>
	</g>
</g>
<g>
	<g enable-background="new    ">
		<g>
			<polygon fill="#69C8B6" points="185,110.3 184.6,147.2 158.9,158.1 159,120.6 			"/>
		</g>
		<g>
			<polygon fill="#4A8D81" points="158.9,158.1 129.1,148.5 129,111.5 159,120.6 			"/>
		</g>
		<g>
			<polygon fill="#5DB2A2" points="159,120.6 129,111.5 155.1,101.5 185,110.3 			"/>
		</g>
	</g>
</g>
<g>
	<g enable-background="new    ">
		<g>
			<polygon fill="#69C8B6" points="130,110.4 129.6,147.3 103.9,158.2 104.1,120.8 			"/>
		</g>
		<g>
			<polygon fill="#4A8D81" points="103.9,158.2 74.2,148.6 74.1,111.6 104.1,120.8 			"/>
		</g>
		<g>
			<polygon fill="#5DB2A2" points="104.1,120.8 74.1,111.6 100.1,101.6 130,110.4 			"/>
		</g>
	</g>
</g>
<g>
	<g enable-background="new    ">
		<g>
			<polygon fill="#69C8B6" points="131,74 130.6,110.9 104.9,121.8 105.1,84.3 			"/>
		</g>
		<g>
			<polygon fill="#4A8D81" points="104.9,121.8 75.2,112.1 75.1,75.1 105.1,84.3 			"/>
		</g>
		<g>
			<polygon fill="#5DB2A2" points="105.1,84.3 75.1,75.1 101.1,65.1 131,74 			"/>
		</g>
	</g>
</g>
<g>
	<g enable-background="new    ">
		<g>
			<polygon fill="#69C8B6" points="160,120.5 159.7,157.4 133.9,168.3 134.1,130.8 			"/>
		</g>
		<g>
			<polygon fill="#4A8D81" points="133.9,168.3 104.2,158.6 104.1,121.6 134.1,130.8 			"/>
		</g>
		<g>
			<polygon fill="#5DB2A2" points="134.1,130.8 104.1,121.6 130.2,111.6 160,120.5 			"/>
		</g>
	</g>
</g>
<g>
	<g enable-background="new    ">
		<g>
			<polygon fill="#69C8B6" points="295.3,128.6 294.9,165.5 269.2,176.5 269.3,139 			"/>
		</g>
		<g>
			<polygon fill="#4A8D81" points="269.2,176.5 239.4,166.8 239.3,129.8 269.3,139 			"/>
		</g>
		<g>
			<polygon fill="#5DB2A2" points="269.3,139 239.3,129.8 265.4,119.8 295.3,128.6 			"/>
		</g>
	</g>
</g>
<g>
	<g enable-background="new    ">
		<g>
			<polygon fill="#69C8B6" points="270.3,138.8 269.9,175.7 244.2,186.6 244.4,149.1 			"/>
		</g>
		<g>
			<polygon fill="#4A8D81" points="244.2,186.6 214.5,176.9 214.4,140 244.4,149.1 			"/>
		</g>
		<g>
			<polygon fill="#5DB2A2" points="244.4,149.1 214.4,140 240.4,129.9 270.3,138.8 			"/>
		</g>
	</g>
</g>
<g>
	<g enable-background="new    ">
		<g>
			<polygon fill="#69C8B6" points="324.3,137.6 323.9,174.5 298.2,185.5 298.3,148 			"/>
		</g>
		<g>
			<polygon fill="#4A8D81" points="298.2,185.5 268.4,175.8 268.3,138.8 298.3,148 			"/>
		</g>
		<g>
			<polygon fill="#5DB2A2" points="298.3,148 268.3,138.8 294.4,128.8 324.3,137.6 			"/>
		</g>
	</g>
</g>
<g>
	<g enable-background="new    ">
		<g>
			<polygon fill="#69C8B6" points="131,37.5 130.6,74.4 104.9,85.3 105.1,47.8 			"/>
		</g>
		<g>
			<polygon fill="#4A8D81" points="104.9,85.3 75.2,75.6 75.1,38.7 105.1,47.8 			"/>
		</g>
		<g>
			<polygon fill="#5DB2A2" points="105.1,47.8 75.1,38.7 101.1,28.6 131,37.5 			"/>
		</g>
	</g>
</g>
<g>
	<g enable-background="new    ">
		<g>
			<polygon fill="#69C8B6" points="78.2,131 77.8,167.9 52.1,178.9 52.2,141.4 			"/>
		</g>
		<g>
			<polygon fill="#4A8D81" points="52.1,178.9 22.3,169.2 22.2,132.2 52.2,141.4 			"/>
		</g>
		<g>
			<polygon fill="#5DB2A2" points="52.2,141.4 22.2,132.2 48.3,122.2 78.2,131 			"/>
		</g>
	</g>
</g>
<g>
	<g enable-background="new    ">
		<g>
			<polygon fill="#69C8B6" points="106.2,140.2 105.8,177.1 80.1,188 80.2,150.5 			"/>
		</g>
		<g>
			<polygon fill="#4A8D81" points="80.1,188 50.3,178.3 50.2,141.4 80.2,150.5 			"/>
		</g>
		<g>
			<polygon fill="#5DB2A2" points="80.2,150.5 50.2,141.4 76.3,131.3 106.2,140.2 			"/>
		</g>
	</g>
</g>
</svg>
