<?xml version="1.0" encoding="utf-8"?>
<!-- Generator: Adobe Illustrator 18.1.1, SVG Export Plug-In . SVG Version: 6.00 Build 0)  -->
<svg version="1.1" id="Layer_1" xmlns="http://www.w3.org/2000/svg" xmlns:xlink="http://www.w3.org/1999/xlink" x="0px" y="0px"
	 viewBox="0 0 250 375" enable-background="new 0 0 250 375" xml:space="preserve">
<g opacity="0.1">
	<desc  xmlns:shape="http://adobe.com/products/shape">
		<shape:version>1.1.2</shape:version>
		<shape:captureDetail>0.750000</shape:captureDetail>
		<shape:source>1</shape:source>
	</desc>
	<path fill="#FFFFFF" d="M12,371.6c71-12.2,143.5-8.1,215.4-10c1.4,0,3-0.2,3.9-1.3c0.7-0.9,0.7-2.1,0.7-3.2
		c1.6-112.8,5-225.5,10.3-338.1c0.2-3.9,1.3-9,5.1-9.3c1,4.6,0.7,9.4,0.5,14.2c-6.9,114.5-9.7,229.3-8.2,344
		c-11.4-0.1-22.8-0.3-34.2-0.4c-61.6-0.7-123.4-1.3-184.3,7.5C17.6,375.5,12.7,375.3,12,371.6"/>
	<path fill="#FFFFFF" d="M7,78.7c0.2,6.3,0.4,12.6,0.6,19c2.1,67.1,4.1,134.1,6.2,201.2c0.7,22.9,1.4,45.9,1.4,68.8
		c-3.3-0.2-4.4-4.6-4.5-8c-4.5-118-9-236.1-10.8-354.2c0-1.7,2.5-2.2,3.7-1.1s1.3,3,1.4,4.7C5.6,32.4,6.3,55.5,7,78.7"/>
	<path fill="#FFFFFF" d="M99.2,105.3c-4.1-2.4-8.2-5-11.5-8.6c-7.4-8.1-9.8-19.8-9.9-31c0-4.4,0.3-8.9,2.5-12.7
		c1.5-2.6,3.9-4.6,6.2-6.5c4-3.3,8-6.7,12-10c6.9-5.7,14.2-11.7,23-12.7c10.2-1.2,20.5,4.9,25.8,13.9s6.1,20.4,3.5,30.7
		c-2.6,10.2-8.3,19.4-15,27.4c-6.8,8-16.3,15.5-26.5,13.7C105.6,108.9,102.3,107.2,99.2,105.3 M89.4,47.5c-2.5,2.1-5.2,4.3-6.7,7.2
		c-1.6,2.9-1.9,6.9,0.1,9.5c0.1-1.8,1.8-3.4,3.6-3.3c-0.8,5.9-1.5,12.3,1.4,17.5c1.8,3.1,4.7,5.4,7.5,7.5c4.2,3.2,8.4,6.3,12.5,9.5
		c-7.7-1.6-14.7-6.5-19-13.2c-1.5,0.1-1.3,2.5-0.6,3.9c3,5.5,7.3,10.2,12.4,13.6c1.1,0.7,2.2,1.4,3.5,1.4c1.4,0,2.7-0.7,3.9-1.4
		c7.3-4.2,14.7-8.5,21.1-14.1c6-5.2,11.4-12.2,11.9-20.3c0.7-10.2-7.6-20.2-17.6-21c-5.4-0.4-10.5-3.2-13.8-7.6
		c-7,6.2-12.7,14.1-16.5,22.9c-0.5,1.1-1,2.3-1.9,3.1c-1,0.7-2.5,0.8-3.2-0.2c4.7-7.7,9.4-15.3,14.1-23c0.6-0.9,1.1-2.2,0.5-3
		C98.2,40.2,93.8,43.9,89.4,47.5 M146.4,67.3c-0.1-5.7,0.4-11.3-0.1-17c-0.5-5.6-2.2-11.4-6.2-15.3c-2.9-2.9-6.9-4.5-10.9-4.8
		c-5-0.4-10,1.2-14.3,3.7c-0.8,0.4-1.6,1.1-1.7,2c-0.1,1,0.8,1.8,1.6,2.3c4.6,2.9,10.1,3.7,15.3,5.3c5.2,1.6,10.5,4.6,12.4,9.8
		c1.9,5.2-0.2,11,1,16.4c0.4,1.9-0.7,3.8-1.8,5.4c-3.3,4.9-6.6,9.9-11,13.7c-7.4,6.3-17.5,9-24.1,16.3c3.2,2.8,8,2.8,11.9,1.2
		c3.9-1.7,7-4.7,10-7.7C137.3,89.9,146.7,79.8,146.4,67.3"/>
	<path fill="#FFFFFF" d="M190.8,130.5c0,1.6,0,3.3-0.1,4.9c0,1.8-0.1,3.7-1.4,4.9c-1.2,1.2-3.9,0.6-3.8-1.1c-0.4,3.1-4.1,5-7,4.3
		c-3-0.7-5.3-3.2-6.8-6c-0.7-1.3-2.7-2.7-3.2-1.3c0.6,0.8,1.2,1.6,1.7,2.4c-5.1,3.6-11.7,7.2-17.1,4.2c-1.7-1-4.2-2.4-5.3-0.7
		c-4.5,7.2-16.4,7.2-20.9,0c0.3,4-5.3,6.2-8.7,4.2s-5-6.1-6.3-9.9c-5.8,4.2-11.6,8.4-17.3,12.6c-3,2.2-6.2,4.5-9.9,5.1
		s-8-0.8-9.5-4.3c-3.1-7.2,7.1-15.3,3.9-22.3c-5.3,8.7-10.5,17.4-15.8,26.1c-1.4,2.4-3,4.9-5.5,6.1c-2.5,1.2-6.1,0.2-6.7-2.5
		c-0.3-1.4,0.1-2.8,0.6-4.1c2.5-7.2,5-14.3,7.4-21.5c0.5-1.5,3-1.1,3.7,0.3s0.2,3.2-0.3,4.7c-2.2,6-5,11.8-8.4,17.2
		c-0.9,1.4,1.2,3,2.7,2.4c1.5-0.6,2.1-2.3,2.7-3.8c3.3-8.5,8-16.4,13.9-23.3c1.8-2.2,4.4-4.4,7.1-3.5c3.7,1.3,3.3,6.8,2,10.7
		c-1,3.2-2.1,6.4-3.1,9.5c-0.4,1.3-0.8,2.8,0.1,3.8c1,1.1,2.6,0.6,3.9,0.1c4.4-1.9,8.5-4.5,12.2-7.6c3.5-3,6.8-6.6,11.2-8
		c4.3-1.4,10.2,0.5,11,5.1c0.4,2,3.5,1.6,4.9,0.1c1.4-1.5,2.8-3.6,4.8-3.3c2.7,0.3,3.1,4.4,5.2,6.2c2.1,1.8,5.5,0.7,7.6-1.2
		s3.6-4.4,5.9-6c2.3-1.5,6.1-1.5,7.3,1.1c1.3,2.7,5.2,2.8,7.8,1.5c2.6-1.4,4.8-3.7,7.5-4.7c2.8-1,6.8,0.3,6.9,3.4
		c0.1,2.6,4.3,2.6,5.8,0.5c1.5-2.1,1.6-4.9,2.9-7.2c1.3-2.3,5-3.4,6.1-1.1C190.9,129.1,190.9,129.8,190.8,130.5"/>
	<path fill="#FFFFFF" d="M37.2,253.9c14.2-3.9,29.2-4.7,43.7-2.3c0.8,0.1,1.6,0.3,2.1,0.8c0.6,0.5,0.7,1.6,0.1,2.1
		c-1.3,1-0.7,3.2-0.4,4.9c0.8,3.5,0,7.2-0.9,10.6c-1.7,7.1-3.4,14.3-5.1,21.4c-0.3,1.2-0.6,2.6-1.5,3.5c-0.9,0.9-2.5,1.2-3.3,0.2
		c2-11.7,4-23.5,6-35.2c0.2-1.4,0.4-3.1-0.5-4.1c-0.9-1-2.4-1-3.7-0.9c-9.4,0.4-18.8,1.2-28.1,2.2c-2.2,0.2-4.7,0.7-6,2.6
		c-0.7,1.1-0.8,2.4-0.9,3.7c-0.5,5.1-0.9,10.2-1.4,15.3c-0.2,2.5-0.2,5.4,1.7,6.9c1.6,1.2,3.9,0.8,5.8,0.4
		c6.9-1.3,13.9-1.6,20.9-0.9c0.6,0.1,1.2,0.2,1.4,0.7c0.4,0.9-0.8,1.7-1.8,1.9c-5.9,1.4-11.8,2.5-17.8,3.4c-1.8,0.3-3.7,0.5-5.5,0.1
		c-4.1-0.9-7.1-4.7-8.3-8.8c-1.2-4.1-0.9-8.5-0.5-12.8c0.3-4,0.6-8,0.9-11.9c0.1-0.8,0.1-1.7,0.6-2.4
		C35.4,254.4,36.3,254.1,37.2,253.9z"/>
	<path fill="#FFFFFF" d="M80.8,191.7c1.3,2.1,1.2,4.8,1.2,7.3c-0.3,9.8-0.6,19.6-1,29.5c-3.5-1.8-7.7-2.3-11.5-1.3
		c-10.6,2.7-21.5,4.5-32.4,5.4c-1.9,0.2-3.9,0.3-5.7-0.4c-1.8-0.7-3.3-2.5-3.1-4.5c14.8-2.2,29.7-3.8,44.6-4.7
		c1.5-0.1,3.2-0.4,3.8-1.8c0.2-0.4,0.2-0.9,0.2-1.3c0.3-7.4,0.5-14.8,0.8-22.3c0.1-1.6,0-3.5-1.2-4.6c-1-0.8-2.4-0.8-3.7-0.8
		c-10.4,0.5-20.9,1-31.3,1.5c-1.3,0.1-2.7,0.1-3.6-0.8s-0.8-2.9,0.4-3.1c10.5-1.6,21.2-2.3,31.8-2.2
		C74.1,187.7,78.7,188.2,80.8,191.7z"/>
	<path fill="#FFFFFF" d="M13.9,9.2c-1.4-0.3-3.2-1.7-2.2-2.8C81.6,7.8,151.5,3,221.4,0.5c8.8-0.3,17.7-0.6,26.4,1
		c1.1,0.2,2.6,1.4,1.7,2.2c-0.3,0.2-0.7,0.3-1,0.3C184.3,6.3,120,8.7,55.8,11.1C41.8,11.6,27.6,12.1,13.9,9.2z"/>
	<path fill="#FFFFFF" d="M134.5,338.4c-1.5,1.5-3.2,3.1-5.3,3.3c-2.7,0.3-5.2-1.8-6.7-4.2c-1.5-2.4-2.4-5.1-4.2-7.2
		c-2.1,2.9-4.6,5.5-7.2,7.9c-1.7,1.5-3.8,2.9-6,2.6c-3.3-0.5-4.7-4.5-5.4-7.9c-0.5-2.2-1-4.5-1.5-6.7c-0.4-1.7,2.1-2.8,3.5-1.7
		c1.4,1,1.6,3,1.6,4.7c0,1.7-0.2,3.6,0.6,5.1c0.8,1.5,3.1,2.3,4.2,0.9c1.7-2.3,3.5-4.6,5.2-6.8c1.7-2.2,4-4.6,6.6-3.8
		c2.6,0.8,3.2,4.2,4,6.9c0.8,2.7,3.8,5.4,5.9,3.6c3-2.7,6-5.4,8.9-8.1c2.3-2.1,4.7-4.2,7.7-4.7c3-0.5,6.6,1.5,6.6,4.6
		c0,1.1-0.3,2.1-0.1,3.2c0.2,1,1.5,2,2.3,1.3c3.5-3.1,7.3-6.3,11.9-6.9c4.6-0.5,9.9,3,9.5,7.7c-2.6-0.3-5.1-1.7-6.8-3.8
		c-3.8,2.7-7.6,5.4-11.5,8.1c-1.3,0.9-2.7,1.9-4.3,1.9c-2.3,0-4.1-2.1-5.2-4.2c-1.1-2.1-1.7-4.5-3.2-6.3
		C141.7,331.3,138.1,334.9,134.5,338.4z"/>
	<path fill="#FFFFFF" d="M115.4,209.4c-1.9,1.5-4.2,2.8-6.6,2.6c-4.8-0.5-6.9-6.4-7.9-11.3c-0.4-1.8-0.4-4.2,1.2-4.9
		c4.1,1.1,1.6,9.9,5.8,10.8c1.2,0.2,2.5-0.5,3.5-1.2c4.2-3,8-6.5,11.3-10.5c1.8-2.2,5.6-1.2,7.2,1.1c1.6,2.3,1.7,5.4,1.7,8.3
		c0,1.6,2.4,1.7,3.9,1.2c4.7-1.8,9.1-4.5,12.8-7.9c2.1-1.9,4-4,6.4-5.5c2.3-1.5,5.3-2.4,7.9-1.5c2.6,0.9,4.6,4,3.7,6.7
		c-0.5,1.5,2,1.9,3.4,1.4c1.8-0.6,3.8-1.1,5.7-0.6c1.9,0.5,3.5,2.4,3.2,4.3c-0.3,2-3.1,3.2-4.3,1.6c-1.2-1.4-3.3,0.1-4.9,1
		c-3.2,1.7-7.8-0.9-8.1-4.7c-0.2-2,0.5-4.4-1.1-5.5c-4.2,4.8-9.4,8.6-14.8,12c-2.9,1.8-6,3.6-9.4,3.8c-3.4,0.2-7.1-1.6-8.2-4.9
		c-0.8-2.5-0.7-6.4-3.3-6.6C122.2,203.1,119.1,206.6,115.4,209.4"/>
	<path fill="#FFFFFF" d="M78.1,340.7c-1.1,0.4-2.4-0.5-2.8-1.6c-0.5-1.1-0.3-2.4-0.2-3.6c0.5-4.7,1.1-9.4,1.6-14.1
		c0.3-2.2,0.4-4.9-1.2-6.4c-1-0.9-2.4-1.2-3.8-1.3c-8.1-1-16.3-1-24.4-0.1c-1.3,0.1-2.9,0.7-3,2c-0.4,8.1-1.7,16.2-3.7,24.1
		c-0.4,1.5-1.8,3.4-3,2.5c-1.5-2.5-1.3-5.6-1.1-8.4c0.6-6.3,1.4-12.6,2.5-18.8c0.3-1.9,1.1-4.3,3-4.6c11.6-1.7,23.5-1.1,34.8,1.8
		c1.5,0.4,3.1,0.9,4.2,2c1.7,1.8,1.6,4.6,1.3,7.1c-0.6,5.6-1.4,11.1-2.6,16.5C79.6,339,79.2,340.3,78.1,340.7z"/>
	<path fill="#FFFFFF" d="M108.2,272.2c4,2.4,9.2,0.2,12.6-2.9c1.6-1.5,3.1-3.2,5.1-4c2-0.8,4.7-0.3,5.5,1.8c1.4,3.5,6.4,2.9,9.8,1.6
		c4.5-1.8,8.9-3.8,13.1-6.1c2.3-1.2,5.2-2.5,7.3-0.9c2.5,2,1.6,6.9,4.4,8.5c1.9,1.1,4.3-0.1,6.1-1.4c3.3-2.2,6.6-4.4,9.9-6.6
		c1-0.6,2.3,0.6,2.1,1.8c-0.1,1.2-1.1,2.1-2,2.8c-1.6,1.4-3.3,2.8-4.9,4.3c-2.4,2.1-5.1,4.3-8.2,4.7s-6.9-1.8-6.8-5.1
		c0-2.4-2.6-4.1-5-3.8s-4.3,1.7-6.3,3c-3.5,2.4-7.4,4.6-11.6,5.2c-4.2,0.5-8.9-1-11.2-4.6c-3.3,5-9.5,7.9-15.3,7.1
		c-5.9-0.8-11.1-5.1-13.1-10.8c-0.2-0.7-0.4-1.6,0.2-2c0.6-0.5,1.5,0.1,2,0.6C104.2,267.5,105.6,270.6,108.2,272.2z"/>
	<path fill="#FFFFFF" d="M200.2,263.1c-1.7-2.2-3.3-4.4-5-6.6c-0.7-0.9-1.4-1.9-1.3-3.1c0.1-1.1,1.6-2.1,2.4-1.2
		c3.7,5.1,7.5,10.1,11.2,15.2c0.5,0.7,1.1,1.5,1.3,2.4c0.4,1.8-0.7,3.5-1.9,4.8c-2,2.3-4.2,4.3-6.7,5.9c-1.3,0.8-2.8,1.6-4.2,1.3
		c-1.5-0.3-2.6-2.3-1.6-3.5c2.1-2.6,4.3-5.2,6.4-7.7c0.5-0.6,1-1.3,1.3-2C202.6,266.6,201.4,264.7,200.2,263.1z"/>
	<path fill="#FFFFFF" d="M202.5,333c0,1.1-0.6,2.1-1.2,3c-1.9,2.9-4.3,5.4-7,7.4c-1.1,0.8-2.4,1.6-3.8,1.4c-1.4-0.2-2.5-2-1.7-3.1
		c1.8-2.6,3.7-5.2,5.5-7.8c0.9-1.3,1.8-2.7,1.7-4.3c-0.1-1-0.6-1.9-1.1-2.8c-2-3.3-4.2-6.4-6.5-9.4c-0.5-0.7,0.3-1.8,1.1-1.8
		c0.9,0,1.6,0.6,2.2,1.2c3.7,3.7,6.6,8.1,9.4,12.5C201.8,330.4,202.6,331.6,202.5,333z"/>
	<path fill="#FFFFFF" d="M206.2,194.8c1.3,1,2.7,2.2,3,3.8c0.3,1.6-0.5,3.3-1.2,4.8c-2.1,3.9-4.6,8.2-8.8,9.3
		c-0.7,0.2-1.6,0.2-2.2-0.1c-0.7-0.4-1-1.3-0.6-2c1.9-2.9,3.8-5.9,5.8-8.8c0.7-1,1.3-2.1,1.3-3.3c-0.1-1.7-1.6-2.9-3.1-3.5
		c-1.5-0.6-3.2-0.7-4.7-1.5c-1.5-0.8-2.7-2.4-2.2-4.1C198,188.8,202.4,191.8,206.2,194.8z"/>
	<path fill="#FFFFFF" d="M72.5,343.4c0,0.6,0.1,1.2,0.1,1.8c-6.1,2.3-12.4,4.1-18.7,5.4c-2.1,0.4-4.3,0.8-6.5,0.9
		c-2.5,0.1-5.1-0.1-7.6-0.6c-2.2-0.5-4.8-2.1-4.2-4.3c2.3,0.7,4.6,1.1,7,1.1c2,0,4-0.3,6.1-0.6C56.5,345.8,64.5,344.6,72.5,343.4z"
		/>
	<path fill="#FFFFFF" d="M138.7,41c-1.8-1.1-2.9-3.3-2.7-5.5C137.8,36.5,139,38.8,138.7,41L138.7,41z"/>
	<path fill="#FFFFFF" d="M34.3,196.5c0.4-0.7,1.5-0.8,2.2-0.3c0.7,0.5,1.1,1.3,1.3,2.1c2.3,6.4,1.7,13.6,0.4,20.3
		c-0.3,1.5-0.6,3.1-1.8,3.9c-1.2,0.8-3.3,0-3.1-1.5c1.2-7.6,1.5-15.4,0.8-23.1C34.1,197.5,34,197,34.3,196.5z"/>
</g>
</svg>
