<?xml version="1.0" encoding="UTF-8" standalone="no"?>
<svg width="560px" height="560px" viewBox="0 0 560 560" version="1.1" xmlns="http://www.w3.org/2000/svg" xmlns:xlink="http://www.w3.org/1999/xlink">
    <!-- Generator: Sketch 3.6.1 (26313) - http://www.bohemiancoding.com/sketch -->
    <title>basecamp</title>
    <desc>Created with Sketch.</desc>
    <defs></defs>
    <g id="Page-1" stroke="none" stroke-width="1" fill="none" fill-rule="evenodd">
        <g id="basecamp">
            <g id="Basecamp-Logo">
                <rect id="Rectangle-3" fill="#FFFFFF" x="0" y="-2.84217094e-14" width="560" height="560"></rect>
                <path d="M280.508871,84.00017 C163.4154,84.00017 71.6798706,232.485214 63.0003412,357.898958 C99.7450471,421.462778 188.351988,445.355321 280.508871,445.355321 C372.658929,445.355321 461.272694,421.462778 498.000341,357.898958 C489.320812,232.485214 397.595518,84.00017 280.508871,84.00017" id="Dome" fill="#B6DEFF"></path>
                <path d="M467.405512,328.025288 C467.405512,328.025288 441.544335,272.298127 415.256688,239.78509 C388.951982,207.25845 356.828512,171.839609 337.835218,171.839609 C318.852159,171.839609 265.785571,265.490146 241.442629,265.490146 C217.092865,265.490146 204.436924,223.037186 174.500394,223.037186 C144.551924,223.037186 96.9714529,325.408535 96.9714529,325.408535 L93.7490412,342.765144 C93.7490412,342.765144 110.277335,415.811508 283.211159,415.811508 C456.148394,415.811508 469.971159,343.963852 469.971159,343.963852 L467.405512,328.025288" id="Mountain" fill="#66CC66"></path>
                <path d="M244.149694,305.455915 C217.293988,305.455915 203.524106,279.041836 196.059165,262.737709 C189.348224,248.052263 188.186518,224.861942 169.138635,224.21243 C171.011694,223.474502 172.8114,223.037526 174.500224,223.037526 C204.436753,223.037526 217.092694,265.490486 241.442459,265.490486 C265.787106,265.490486 318.851988,171.839949 337.835047,171.839949 C341.413988,171.839949 345.441576,173.098168 349.813753,175.335756 C346.5794,174.910682 342.4324,175.204833 339.238988,178.399687 C333.101224,184.517347 277.399047,305.455915 244.149694,305.455915" id="Mountain-Shadow" fill="#17AD49"></path>
                <path d="M370.123647,337.910972 C370.123647,349.649808 360.577529,359.164657 348.800118,359.164657 C337.022706,359.164657 327.476588,349.649808 327.476588,337.910972 C327.476588,326.172137 337.022706,316.657287 348.800118,316.657287 C360.577529,316.657287 370.123647,326.172137 370.123647,337.910972" id="Eye" fill="#000000"></path>
                <path d="M230.241294,337.910972 C230.241294,349.649808 220.695176,359.164657 208.917765,359.164657 C197.140353,359.164657 187.594235,349.649808 187.594235,337.910972 C187.594235,326.172137 197.140353,316.657287 208.917765,316.657287 C220.695176,316.657287 230.241294,326.172137 230.241294,337.910972" id="Eye" fill="#000000"></path>
                <path d="M280.5,397.299379 C298.645471,397.299379 314.696118,388.371131 324.477647,374.683758 C326.616824,371.689539 326.219353,367.574825 323.612765,364.975075 L323.210176,364.573805 C319.837647,361.212322 314.322529,361.805725 311.543647,365.670495 C304.617765,375.302665 293.297529,381.580154 280.5,381.580154 C267.487529,381.580154 255.998412,375.091829 249.103235,365.185911 C246.356765,361.237827 240.778529,360.591715 237.370176,363.988904 L236.979529,364.378271 C234.396824,366.952517 233.985706,371.012821 236.060059,374.010441 C245.790412,388.07698 262.061118,397.299379 280.5,397.299379" id="Mouth" fill="#000000"></path>
            </g>
        </g>
    </g>
</svg>