<?xml version="1.0" encoding="UTF-8" standalone="no"?>
<svg width="325px" height="105px" viewBox="0 0 325 105" version="1.1" xmlns="http://www.w3.org/2000/svg" xmlns:xlink="http://www.w3.org/1999/xlink" xmlns:sketch="http://www.bohemiancoding.com/sketch/ns">
    <!-- Generator: Sketch 3.5.2 (25235) - http://www.bohemiancoding.com/sketch -->
    <title>black-pixel</title>
    <desc>Created with Sketch.</desc>
    <defs></defs>
    <g id="Page-1" stroke="none" stroke-width="1" fill="none" fill-rule="evenodd" sketch:type="MSPage">
        <g id="Black-Pixel" sketch:type="MSArtboardGroup" transform="translate(-342.000000, -181.000000)" fill="#FFFFFF">
            <g id="black-pixel" sketch:type="MSLayerGroup" transform="translate(342.000000, 181.000000)">
                <path d="M176.819003,0.101449275 L198.367993,0.101449275 L198.367993,48.7463768 L176.819003,48.7463768 L176.819003,0.101449275 Z M148.450392,0.101449275 L169.999382,0.101449275 L169.999382,48.7463768 L148.450392,48.7463768 L148.450392,0.101449275 Z M119.853614,0.101449275 L141.402604,0.101449275 L141.402604,48.7463768 L119.853614,48.7463768 L119.853614,0.101449275 Z M0.244043293,82.326087 C0.244043293,81.5905797 0.852485366,80.9818841 1.5369827,80.9818841 L10.2072822,80.9818841 C12.8945681,80.9818841 15.0241153,81.7681159 16.3677582,83.0615942 C17.3311249,84.076087 17.8888634,85.2934783 17.8888634,86.8152174 L17.8888634,86.865942 C17.8888634,89.9347826 15.9874819,91.5072464 14.136804,92.2934783 C16.9254968,93.1304348 19.1818028,94.7536232 19.1818028,97.9492754 L19.1818028,98 C19.1818028,102.032609 15.7593162,104.442029 10.6889656,104.442029 L1.56233445,104.442029 C0.827133613,104.442029 0.269395046,103.833333 0.269395046,103.097826 L0.244043293,82.326087 L0.244043293,82.326087 Z M9.8016542,91.4565217 C12.9959751,91.4565217 15.2269294,90.0108696 15.2269294,87.2463768 L15.2269294,87.1956522 C15.2269294,84.9130435 13.3762514,83.3913043 10.02982,83.3913043 L2.88062561,83.3913043 L2.88062561,91.5072464 L9.82700595,91.5072464 L9.8016542,91.4565217 L9.8016542,91.4565217 Z M10.7650208,102.15942 C14.339618,102.15942 16.5198688,100.586957 16.5198688,97.9492754 L16.5198688,97.8985507 C16.5198688,95.3115942 14.3903215,93.865942 10.2579858,93.865942 L2.88062561,93.865942 L2.88062561,102.15942 L10.7650208,102.15942 L10.7650208,102.15942 Z M35.6604423,82.173913 C35.6604423,81.4384058 36.2688844,80.8297101 36.9533817,80.8297101 C37.6885826,80.8297101 38.2970246,81.4384058 38.2970246,82.173913 L38.2970246,102.032609 L50.4912179,102.032609 C51.1503634,102.032609 51.7334538,102.59058 51.7334538,103.275362 C51.7334538,103.960145 51.1757152,104.518116 50.4912179,104.518116 L37.0040852,104.518116 C36.2688844,104.518116 35.7111458,103.90942 35.7111458,103.173913 L35.7111458,82.173913 L35.6604423,82.173913 L35.6604423,82.173913 Z M77.3894279,83.8478261 L68.4909625,103.782609 C68.2627968,104.34058 67.831817,104.67029 67.1980231,104.67029 C66.5388775,104.67029 65.9557872,104.112319 65.9557872,103.427536 C65.9557872,103.199275 66.0064907,102.971014 66.1332495,102.692029 L75.6401569,81.8188406 C75.9697297,81.0833333 76.4767647,80.6521739 77.3133726,80.6521739 L77.4147796,80.6521739 C78.200684,80.6521739 78.7584225,81.1086957 79.0372918,81.8188406 L88.5441992,102.641304 C88.6456062,102.869565 88.7216615,103.097826 88.7216615,103.300725 C88.7216615,104.036232 88.1639229,104.594203 87.4287221,104.594203 C86.82028,104.594203 86.3639484,104.137681 86.1357827,103.630435 L77.3894279,83.8478261 L77.3894279,83.8478261 Z M102.918643,92.8007246 L102.918643,92.75 C102.918643,86.0797101 107.887587,80.6014493 114.783264,80.6014493 C118.586027,80.6014493 120.994443,81.8442029 123.174694,83.6702899 C123.453563,83.8985507 123.732432,84.2789855 123.732432,84.7355072 C123.732432,85.4710145 123.12399,86.0289855 122.38879,86.0289855 C122.008513,86.0289855 121.729644,85.8514493 121.501478,85.75 C119.701504,84.1268116 117.648012,83.0615942 114.73256,83.0615942 C109.535451,83.0615942 105.605929,87.3224638 105.605929,92.6992754 L105.605929,92.75 C105.605929,98.1775362 109.510099,102.438406 114.73256,102.438406 C117.648012,102.438406 119.701504,101.423913 121.729644,99.5724638 C121.95781,99.3442029 122.236679,99.192029 122.566252,99.192029 C123.225397,99.192029 123.859191,99.8007246 123.859191,100.485507 C123.859191,100.865942 123.631025,101.221014 123.40286,101.449275 C121.121202,103.57971 118.535323,104.923913 114.681857,104.923913 C107.887587,104.898551 102.918643,99.5724638 102.918643,92.8007246 L102.918643,92.8007246 Z M139.881499,82.173913 C139.881499,81.4384058 140.489941,80.8297101 141.174439,80.8297101 C141.909639,80.8297101 142.518081,81.4384058 142.518081,82.173913 L142.518081,95.057971 L155.878455,81.3369565 C156.157325,81.057971 156.486897,80.8804348 156.943229,80.8804348 C157.67843,80.8804348 158.236168,81.4891304 158.236168,82.173913 C158.236168,82.5543478 158.058706,82.8333333 157.779837,83.1376812 L149.489814,91.3550725 L158.438982,102.387681 C158.667148,102.666667 158.819259,102.945652 158.819259,103.351449 C158.819259,104.086957 158.210817,104.695652 157.475616,104.695652 C156.968581,104.695652 156.639008,104.416667 156.410842,104.086957 L147.639136,93.1811594 L142.543433,98.2789855 L142.543433,103.376812 C142.543433,104.112319 141.934991,104.721014 141.19979,104.721014 C140.464589,104.721014 139.906851,104.112319 139.906851,103.376812 L139.906851,82.173913 L139.881499,82.173913 L139.881499,82.173913 Z M185.15973,82.326087 C185.15973,81.5905797 185.768172,80.9818841 186.45267,80.9818841 L193.931437,80.9818841 C199.255305,80.9818841 202.703143,83.7717391 202.703143,88.4384058 L202.703143,88.4891304 C202.703143,93.5869565 198.444049,96.1485507 193.475105,96.1485507 L187.770961,96.1485507 L187.770961,103.25 C187.770961,103.985507 187.162519,104.594203 186.427318,104.594203 C185.692117,104.594203 185.134378,103.985507 185.134378,103.25 L185.134378,82.326087 L185.15973,82.326087 L185.15973,82.326087 Z M193.601864,93.8152174 C197.506034,93.8152174 200.041209,91.7355072 200.041209,88.6666667 L200.041209,88.5652174 C200.041209,85.2173913 197.531386,83.4673913 193.728623,83.4673913 L187.796312,83.4673913 L187.796312,93.8152174 L193.601864,93.8152174 L193.601864,93.8152174 Z M219.00432,82.173913 C219.00432,81.4384058 219.612763,80.8297101 220.29726,80.8297101 C221.032461,80.8297101 221.640903,81.4384058 221.640903,82.173913 L221.640903,103.326087 C221.640903,104.061594 221.032461,104.67029 220.29726,104.67029 C219.562059,104.67029 219.00432,104.061594 219.00432,103.326087 L219.00432,82.173913 L219.00432,82.173913 Z M238.981502,102.48913 L246.815194,92.5217391 L239.361778,83.1123188 C239.133612,82.8333333 238.905447,82.5036232 238.905447,82.0978261 C238.905447,81.4384058 239.463185,80.8043478 240.198386,80.8043478 C240.756125,80.8043478 241.034994,81.0833333 241.364567,81.4637681 L248.463058,90.6449275 L255.460141,81.5144928 C255.840418,81.057971 256.195342,80.7282609 256.753081,80.7282609 C257.361523,80.7282609 257.995317,81.2862319 257.995317,81.9710145 C257.995317,82.3007246 257.89391,82.6304348 257.61504,82.9347826 L250.110921,92.4456522 L257.89391,102.362319 C258.172779,102.641304 258.350241,102.971014 258.350241,103.326087 C258.350241,104.061594 257.792503,104.619565 257.057302,104.619565 C256.499563,104.619565 256.220694,104.34058 255.891121,103.960145 L248.437706,94.3224638 L241.111049,103.833333 C240.730773,104.289855 240.375848,104.619565 239.81811,104.619565 C239.260371,104.619565 238.651929,104.061594 238.651929,103.376812 C238.575874,103.097826 238.753336,102.768116 238.981502,102.48913 L238.981502,102.48913 Z M275.006343,103.148551 L275.006343,82.326087 C275.006343,81.5905797 275.614785,80.9818841 276.299282,80.9818841 L290.901892,80.9818841 C291.561038,80.9818841 292.144128,81.5398551 292.144128,82.2246377 C292.144128,82.884058 291.586389,83.4673913 290.901892,83.4673913 L277.642925,83.4673913 L277.642925,91.4818841 L289.380787,91.4818841 C290.039933,91.4818841 290.623023,92.0398551 290.623023,92.7246377 C290.623023,93.4094203 290.065284,93.9673913 289.380787,93.9673913 L277.642925,93.9673913 L277.642925,102.184783 L291.079354,102.184783 C291.7385,102.184783 292.32159,102.742754 292.32159,103.427536 C292.32159,104.086957 291.763852,104.67029 291.079354,104.67029 L276.299282,104.67029 C275.614785,104.492754 275.006343,103.884058 275.006343,103.148551 L275.006343,103.148551 Z M308.698823,82.173913 C308.698823,81.4384058 309.307265,80.8297101 309.991762,80.8297101 C310.726963,80.8297101 311.335405,81.4384058 311.335405,82.173913 L311.335405,102.032609 L323.529598,102.032609 C324.188744,102.032609 324.771834,102.59058 324.771834,103.275362 C324.771834,103.960145 324.214096,104.518116 323.529598,104.518116 L309.991762,104.518116 C309.256561,104.518116 308.698823,103.90942 308.698823,103.173913 L308.698823,82.173913 L308.698823,82.173913 Z" id="Shape" sketch:type="MSShapeGroup"></path>
            </g>
        </g>
    </g>
</svg>