<?xml version="1.0" encoding="utf-8"?>
<!-- Generator: Adobe Illustrator 18.1.1, SVG Export Plug-In . SVG Version: 6.00 Build 0)  -->
<svg version="1.1" id="Layer_1" xmlns="http://www.w3.org/2000/svg" xmlns:xlink="http://www.w3.org/1999/xlink" x="0px" y="0px"
	 viewBox="200 0 560 560" enable-background="new 200 0 560 560" xml:space="preserve">
<g>
	<rect x="200" fill="#FFFFFF" width="560" height="560"/>
	<path fill="#EAE1CC" d="M480,148.2c-90.2,0-165.2,65-180.7,150.6c-0.9,0-2.1-0.2-3-0.2c-18.3,0-33.2,14.9-33.2,33.2
		s14.9,33.2,33.2,33.2c0.9,0,2.1,0,3-0.2C315,450.6,389.8,515.6,480,515.6c101.5,0,183.7-82.3,183.7-183.7S581.5,148.2,480,148.2z"
		/>
	<path fill="#D6CEBD" d="M663.9,298.7c-0.9,0-2.1,0-3,0.2c-15.7-85.7-90.5-150.6-180.7-150.6v163c2.6-0.9,5.4-1.7,8.2-1.7
		c12.3,0,22.4,10.1,22.4,22.4s-10.1,22.4-22.4,22.4c-3,0-5.8-0.6-8.2-1.7v98.6c17.7,0,32.1,14.4,32.1,32.1
		c0,17.7-14.4,32.1-32.1,32.1c90.2,0,165.2-65,180.7-150.6c0.9,0,2.1,0.2,3,0.2c18.3,0,33.2-14.9,33.2-33.2S682.2,298.7,663.9,298.7
		z"/>
	<circle cx="399.5" cy="307.6" r="24.3"/>
	<circle cx="571.8" cy="307.6" r="24.3"/>
	<path fill="#BBB7AC" d="M553.7,420.2c-4.9-36.4-35.8-64.4-73.7-64.4s-68.9,28-73.7,64.4c-39.8-10.8-76-30.1-106.6-55.8
		c14.9,85.9,90,151.2,180.3,151.2s165.2-65.3,180.3-151.2C629.5,390.1,593.3,409.5,553.7,420.2z"/>
	<path fill="#A5A199" d="M480,515.6c90.2,0,165.2-65.3,180.3-151.2c-30.6,25.8-66.8,45-106.6,55.8c-4.9-36.4-35.8-64.4-73.7-64.4
		v95.4c17.7,0,32.3,14.4,32.3,32.1C512.3,501.2,497.7,515.6,480,515.6z"/>
	<path d="M480,430.6c-23.3,0-42.2-18.9-42.2-42.2H432c0,26.5,21.5,47.8,47.8,47.8c26.5,0,47.8-21.5,47.8-47.8h-5.8
		C522.2,411.8,503.3,430.6,480,430.6z"/>
	<circle fill="#FFFFFF" cx="578.2" cy="299.2" r="8.4"/>
	<circle fill="#FFFFFF" cx="405.7" cy="299.2" r="8.4"/>
	<path d="M322.5,237.4C318.9,199,431.7,130.7,458.7,77.1c8.8,9.7,4.7,21.3,4.7,21.3c7.3-1.5,51.9-41.1,55.1-74.5
		c29.1,8.8,39.8,96.9,39.8,96.9s8.8-0.6,17-17c22.4,13.1,73.5,113.3,62.3,133.8C571.8,170.1,399.5,169.3,322.5,237.4z"/>
	<path fill="#BBB7AC" d="M322.5,237.4v32.5c-24.1,20.9-22.6,94.5-22.6,94.5s-5-35.5-0.6-65.7C303.8,268.4,322.5,237.4,322.5,237.4z"
		/>
	<path fill="#A5A199" d="M637.4,237.4v32.5c24.1,20.9,22.6,94.5,22.6,94.5s5-35.5,0.6-65.7C656,268.4,637.4,237.4,637.4,237.4z"/>
	<path d="M546.1,237.4v12.3c31.9,0,58.4,13.8,63.5,31.7c0.6-2.1,0.9-4.1,0.9-6.2C610.3,254.4,581.5,237.4,546.1,237.4z"/>
	<path d="M423.6,237.4v12.3c-31.9,0-58.4,13.8-63.5,31.7c-0.6-2.1-0.9-4.1-0.9-6.2C359.4,254.4,388.2,237.4,423.6,237.4z"/>
</g>
</svg>
