<svg width="528" height="255" viewBox="0 0 528 255" fill="none" xmlns="http://www.w3.org/2000/svg">
<g clip-path="url(#clip0)">
<path d="M0 -2.09216e-05H100C100.167 -0.000660493 100.333 -2.09216e-05 100.5 -2.09216e-05C170.916 -2.09216e-05 228 57.0837 228 127.5C228 197.916 170.916 255 100.5 255C100.333 255 100.167 255 100 254.999L0 255V-2.09216e-05Z" fill="hsla(205,25%,25%,1)"/>
<path d="M228 127.5V255L325 255L325 201.967L378.033 255L378.484 255L431.517 201.967V255L528 255V-2.09216e-05H431.55L378.517 53.033L325.484 -2.09216e-05H228V127.5Z" fill="hsla(205,25%,25%,1)"/>
</g>
<defs>
<clipPath id="clip0">
<rect width="528" height="255" fill="white"/>
</clipPath>
</defs>
</svg>
