<?xml version="1.0" encoding="utf-8"?>
<!-- Generator: Adobe Illustrator 18.1.1, SVG Export Plug-In . SVG Version: 6.00 Build 0)  -->
<svg version="1.1" id="Layer_1" xmlns="http://www.w3.org/2000/svg" xmlns:xlink="http://www.w3.org/1999/xlink" x="0px" y="0px"
	 viewBox="0 0 500 500" enable-background="new 0 0 500 500" xml:space="preserve">
<rect fill="#F9F8F4" width="500" height="500"/>
<g>
	<rect x="118" y="202" fill="#979692" width="93" height="11"/>
	<rect x="118" y="226" fill="#979692" width="93" height="7"/>
	<rect x="118" y="246" fill="#979692" width="93" height="11"/>
	<rect x="118" y="266" fill="#979692" width="93" height="11"/>
	<rect x="118" y="286" fill="#979692" width="93" height="7"/>
	<rect x="118" y="305" fill="#979692" width="93" height="11"/>
	<path fill="#979692" d="M264.4,253.4c15.9,9.1,36.6,5.4,43.3-6.4c4-7,1.6-16-5.4-20c-7-4-16-1.6-20,5.4
		C278.2,239.5,281.1,248.9,264.4,253.4z"/>
	<polygon fill="#979692" points="330.9,212 373,212 373,307 234,307 234,212 289.9,212 295.8,201 227,201 227,319 384,319 384,201 
		336.2,201 	"/>
	<g>
		<polygon fill="#979692" points="367.2,144 373,144 373,177 349.5,177 343.8,189 384,189 384,133 372.4,133 		"/>
		<polygon fill="#979692" points="310.8,177 128,177 128,144 330.6,144 336.5,133 118,133 118,189 304.4,189 		"/>
	</g>
	<polygon fill="#979692" points="384.4,112 378.6,124 394,124 394,333 106,333 106,124 343.5,124 350,112 95,112 95,346 405,346 
		405,112 	"/>
	<path fill="#979692" d="M311.1,229.3l80-148.4l-8.8-5.1l-87.6,144.6c3.3,0.1,6.7,0.9,9.8,2.7C307.2,224.7,309.4,226.9,311.1,229.3z
		"/>
</g>
</svg>
