<?xml version="1.0" encoding="utf-8"?>
<!-- Generator: Adobe Illustrator 18.1.1, SVG Export Plug-In . SVG Version: 6.00 Build 0)  -->
<svg version="1.1" id="Layer_1" xmlns="http://www.w3.org/2000/svg" xmlns:xlink="http://www.w3.org/1999/xlink" x="0px" y="0px"
	 viewBox="0 0 500 500" enable-background="new 0 0 500 500" xml:space="preserve">
<rect fill="#F9F8F4" width="500" height="500"/>
<path fill="#979692" d="M199,262v102h102V262H199z M293,357h-87v-87h87V357z"/>
<path fill="#979692" d="M321,262v102h103V262H321z M416,357h-87v-87h87V357z"/>
<path fill="#979692" d="M76,262v102h103V262H76z M171,357H84v-87h87V357z"/>
<path fill="#979692" d="M199,96v102h102V96H199z M293,190h-87v-87h87V190z"/>
<polygon fill="#979692" points="249.8,253.1 259.7,236 254,236 254,206 246,206 246,236 240,236 "/>
<polygon fill="#979692" points="128.8,253.1 138.7,236 133,236 133,230 246,230 246,222 125,222 125,236 119,236 "/>
<polygon fill="#979692" points="371.4,253.1 361.6,236 367,236 367,230 254,230 254,222 375,222 375,236 381.3,236 "/>
</svg>
