<?xml version="1.0" encoding="UTF-8" standalone="no"?>
<svg width="80px" height="80px" viewBox="0 0 80 80" version="1.1" xmlns="http://www.w3.org/2000/svg" xmlns:xlink="http://www.w3.org/1999/xlink">
    <!-- Generator: Sketch 3.6.1 (26313) - http://www.bohemiancoding.com/sketch -->
    <title>icon.how-it-feels</title>
    <desc>Created with Sketch.</desc>
    <defs></defs>
    <g id="Page-1" stroke="none" stroke-width="1" fill="none" fill-rule="evenodd">
        <g id="icon.how-it-feels">
            <rect id="Rectangle-5" fill-opacity="0" fill="#FFFFFF" x="0" y="0" width="80" height="80"></rect>
            <path d="M53.3307416,33.3326854 C49.6297016,33.3326854 46.6673146,30.3625231 46.6673146,26.6692584 C46.6673146,22.9682185 49.6297016,19.9980562 53.3307416,19.9980562 C57.0317815,19.9980562 59.9941685,22.9682185 59.9941685,26.6692584 C59.9941685,30.3625231 57.0317815,33.3326854 53.3307416,33.3326854 M39.9961124,63.3297697 C31.1944795,63.3297697 23.5358149,57.7082321 20.9310915,49.3264652 C20.363495,47.5536981 21.3509573,45.726504 23.1237244,45.1589076 C24.8420643,44.5835358 26.7159102,45.5709982 27.2835067,47.3437652 C29.0096219,52.918651 34.1646419,56.6663427 39.9961124,56.6663427 C45.8275829,56.6663427 50.9826028,52.918651 52.708718,47.3437652 C53.2763145,45.5709982 55.1501604,44.5835358 56.9229274,45.1589076 C58.6490427,45.726504 59.636505,47.5536981 59.0611332,49.3264652 C56.4564098,57.7082321 48.7977452,63.3297697 39.9961124,63.3297697 M26.6614831,33.3326854 C22.9682185,33.3326854 19.9980562,30.3625231 19.9980562,26.6692584 C19.9980562,22.9682185 22.9682185,19.9980562 26.6614831,19.9980562 C30.3625231,19.9980562 33.3326854,22.9682185 33.3326854,26.6692584 C33.3326854,30.3625231 30.3625231,33.3326854 26.6614831,33.3326854 M39.9961124,6.66342696 C21.6153173,6.66342696 6.66342696,21.6153173 6.66342696,39.9961124 C6.66342696,58.3846827 21.6153173,73.336573 39.9961124,73.336573 C58.3769074,73.336573 73.3287977,58.3846827 73.3287977,39.9961124 C73.3287977,21.6153173 58.3769074,6.66342696 39.9961124,6.66342696 M39.9961124,80 C17.9142774,80 0,62.0857226 0,39.9961124 C0,17.9142774 17.9142774,0 39.9961124,0 C62.0779473,0 80,17.9142774 80,39.9961124 C80,62.0857226 62.0779473,80 39.9961124,80" id="Shape" fill="#9B9B9B"></path>
        </g>
    </g>
</svg>