<?xml version="1.0" encoding="utf-8"?>
<!-- Generator: Adobe Illustrator 18.1.1, SVG Export Plug-In . SVG Version: 6.00 Build 0)  -->
<svg version="1.1" id="Layer_1" xmlns="http://www.w3.org/2000/svg" xmlns:xlink="http://www.w3.org/1999/xlink" x="0px" y="0px"
	 viewBox="0 0 500 500" enable-background="new 0 0 500 500" xml:space="preserve">
<rect fill="#F9F8F4" width="500" height="500"/>
<g>
	<desc  xmlns:shape="http://adobe.com/products/shape">
		<shape:version>1.1.2</shape:version>
		<shape:captureDetail>1.000000</shape:captureDetail>
		<shape:source>1</shape:source>
	</desc>
	<path fill="#979692" d="M398.1,108.3c0.2-3.9,6.3-4.6,8.9-1.7c2.6,2.9,2.5,7.2,2.3,11c-3.4,64.6-1.4,129.4,1.6,194
		c0.2,3.4,0.3,7-1.5,9.9c-1.8,2.9-6.2,4.4-8.6,2c-0.8-68-1.7-136-2.5-204c-95.6,0.5-191.2,4-286.7,8.8c-3.2,0.2-7.5,1.4-7.2,4.6
		c6.5,75.3-9.8,151.9,3.2,226.4c0.2,1,0.4,2,1,2.7c1,1.1,2.7,1.1,4.2,1.1c96.7-2.3,193.3-4.6,290-6.9c3.7-0.1,8.3,0.3,10,3.6
		c-10.3,3-21.1,3.3-31.8,3.6c-90.1,2.5-180.1,4.9-270.2,7.4c-4.4,0.1-9.1,0.2-13-2c-3.9-2.2-6.4-7.4-4-11.2c1.9,1.2,3.9,2.5,5.8,3.7
		c5.2-36.8-7.8-74.2-4.4-111.2c3.8-42,4.2-84.3,1.1-126.3c-0.2-3.3,0.7-7.9,4-7.7c2,0.1,3.2,2.1,4.9,3.2c1.9,1.3,4.4,1.2,6.7,1.2
		c94.5-2.6,189-5.3,283.6-7.9c0.9,0,1.9-0.1,2.5-0.8C398.5,110.9,398,109.5,398.1,108.3"/>
	<path fill="#979692" d="M371.4,221.3c0.1-1.9,0-4.1-1.5-5.2c-1-0.7-2.3-0.8-3.5-0.8c-20-0.4-39.7,4.4-59.2,9.2
		c-13.1,3.2-26.1,6.4-39.2,9.6c-0.9,0.2-1.8,0.4-2.6,0.8c-2,0.8-3.7,2.2-5,3.9c-4.9,6.1-5.1,14.7-3.6,22.4c1.6,7.7,4.6,15,5.4,22.8
		c0.8,7.8-1.3,16.6-7.8,20.9c-1.2,0.8-2.5,1.4-3.9,1.2c-1.4-0.2-2.7-1.3-2.6-2.7c2.2-24.5,4.3-49,6.5-73.5c0-0.4,0.1-0.9,0.4-1.2
		c0.3-0.3,0.7-0.4,1.2-0.5c34.9-7.1,69.8-14.3,105.1-19c5.2-0.7,11.5-0.8,14.2,3.7c1.3,2.2,1.3,4.9,1.2,7.4
		c-0.6,20.7-1.1,41.5-1.7,62.2c-0.2,8.8-0.5,17.7-1.2,26.5c-0.1,1.1-0.3,2.3-1.2,2.8c-1,0.6-2.5-0.1-3-1.1c-0.6-1.1-0.6-2.3-0.5-3.5
		C369.7,278.4,370.5,249.9,371.4,221.3z"/>
	<path fill="#979692" d="M170.6,306.5c6.6,0.4,13.1,0.7,19.7,1.1c3.5,0.2,7.9,1,8.9,4.4c0.7,2.4-0.8,5-3,6.4
		c-2.1,1.3-4.7,1.7-7.2,2.2c-12.8,2.2-25.3,6.2-37,11.9c-1.5,0.7-3.3-1-3.1-2.7c0.1-1.7,1.4-3,2.7-4.1c5.2-4.5,11.6-7.5,18.4-8.5
		c1.3-0.2,2.7-0.4,3.7-1.2c1-0.8,1.5-2.5,0.5-3.4c-5.2,1.1-11.8,1.7-14.7-2.8c-1.6-2.6-1.3-6,0.3-8.6c1.5-2.6,4-4.5,6.6-6.1
		c3-1.8,6.3-3.2,9.6-4.2c0.2,1.3,1.1,2.5,2.3,3.2c-0.2-2-0.5-3.9-0.7-5.9c-11.9,1.1-23.7,2.1-35.6,3.2c-4.6,0.4-10.7-0.2-11.8-4.7
		c-0.9-3.7,2.7-7.1,6.2-8.4c3.6-1.3,7.6-1.7,10.7-4c-4.1-3.2-2.4-10.9,2.6-12.1c9.1-2.2,18.1-4.9,27-8c0.8-0.3,1.6-0.6,2-1.3
		c0.4-0.7,0-1.9-0.8-1.8c-11.6,0.7-23.1,1.4-34.7,2.1c-4.4,0.3-9.2,0.4-12.9-2.1s-4.8-8.8-1.1-11.1c1.2-0.8,2.7-1,4.2-1.1
		c22.6-2.7,45.3-5.5,67.9-8.2c1.2-0.1,1.3-2,0.5-2.8c-0.9-0.8-2.2-0.8-3.3-0.7c-20.7,0.7-41.3,1.4-62,2c-2.4,0.1-5,0.1-6.7-1.6
		c-1.7-1.6-1.1-5.3,1.2-5.4c31.7-0.5,63.4,0,95.1,1.5c2,0.1,4,0.2,5.7,1.2c1.7,1,2.8,3.2,2,5c-0.9,1.8-3.2,2.3-5.2,2.5
		c-25.1,2.9-50.2,6.1-75.3,9.5c-2.1,0.3-4.9,1.9-3.8,3.7c12.8-0.7,25.5-1.4,38.3-2.1c2-0.1,4.4-0.1,5.7,1.5c1.2,1.4,1,3.7-0.1,5.2
		s-2.6,2.6-4.2,3.6c-5,3.2-10,6.4-15,9.6c6.4,0.6,12.9,0.3,19.2-0.9c2.4-0.5,4.8-1.1,7.2-0.7c2.4,0.4,4.8,2.2,4.9,4.6
		c0.3,3.9-4.6,5.9-8.5,6.6c-11.3,2.1-22.5,4.2-33.8,6.2c-0.8,0.2-1.7,0.3-2.3,0.9c-0.6,0.6-0.6,1.8,0.1,2.2
		c17.1-2.2,34.4-3.4,51.7-3.8c3.5-0.1,8.1,0.7,8.8,4.2c0.4,2-1,4-2.7,5.1c-1.7,1.1-3.8,1.4-5.8,1.7c-14.4,2.4-28.6,6.4-42.1,11.9
		c-1.8,0.7-4,2.6-2.8,4.1C168.6,306.3,169.6,306.4,170.6,306.5"/>
	<path fill="#979692" d="M340.4,140.5c5-0.2,10.5-0.4,14.6,2.6c4.4,3.2,5.9,9,6.7,14.4c1.7,11.8,0.9,24.8-6.4,34.2
		c-1.1,1.4-2.6,2.9-4.4,2.9s-3.5-2.4-2.2-3.7c6.7-7.3,10.5-17.2,10.2-27c-0.1-5.8-2-12.1-6.7-15.5c-4.6-3.2-10.6-3.1-16.2-2.8
		c-22.7,1.3-45.4,2.5-68.2,3.8c-6.2,0.3-12.4,0.7-18.5,1c-35.2,2-70.4,4.1-105.6,6.3c-0.7,0-0.9,1-0.9,1.7c0,9.3,0,18.5,0,27.8
		c0,1.3-0.3,3-1.6,3.3c-1.7,0.4-2.6-2-2.7-3.7c-0.5-10.7-0.5-21.4,0.1-32.1c0.1-1.5,0.6-3.4,2.1-3.5
		C207.2,147.1,273.8,143.8,340.4,140.5z"/>
	<path fill="#979692" d="M360.3,316.2c-1.4,3.1-5.4,3.8-8.8,4.1c-35.4,3.2-71,4.7-106.6,4.7c-1.7,0-3.6-0.2-4.5-1.5
		c-1-1.5,0-3.6,1.5-4.5c1.5-0.9,3.4-1,5.1-1.1C284.7,316.8,322.5,316.3,360.3,316.2z"/>
	<path fill="#979692" d="M162.6,264.5c0.7-0.2,1.5-0.3,2.1,0.1c0.4,0.2,0.6,0.7,0.6,1.1c-1.7,0-3.4-0.1-5.1-0.1
		C160.9,265.1,161.7,264.7,162.6,264.5z"/>
	<path fill="#979692" d="M157.1,272c0,0.6-0.6,1.1-1.2,1c-0.6-0.1-1-0.7-0.9-1.3c0.6-0.3,1.4-0.1,1.9,0.4L157.1,272z"/>
	<path fill="#979692" d="M164.1,272.8c0.8-0.2,0.7,1.2,0,1.7C163.5,274.3,163.5,273.1,164.1,272.8L164.1,272.8z"/>
	<path fill="#979692" d="M159.7,272c-0.3-0.6,0.8-1.3,1.2-0.7c0,0.5-0.7,0.9-1,0.5L159.7,272z"/>
	<path fill="#979692" d="M149.9,281.9c0.3-0.5,1.3-0.2,1.2,0.4C150.8,282.8,149.8,282.5,149.9,281.9L149.9,281.9z"/>
	<path fill="#979692" d="M142.4,201.7c-2.6,0.2-5.5,0.2-7.5-1.5c-2-1.7-1.4-5.9,1.2-6c67.7-3.6,135.3-7.6,202.9-12
		c2.4-0.2,5.1-0.2,6.9,1.4c1.8,1.6,1.4,5.4-1,5.6c-12.2,0.8-24.3,1.5-36.5,2.3C253.1,194.8,197.8,198.3,142.4,201.7"/>
</g>
</svg>
