<?xml version="1.0" encoding="UTF-8" standalone="no"?>
<svg width="80px" height="80px" viewBox="0 0 80 80" version="1.1" xmlns="http://www.w3.org/2000/svg" xmlns:xlink="http://www.w3.org/1999/xlink" xmlns:sketch="http://www.bohemiancoding.com/sketch/ns">
    <!-- Generator: Sketch 3.5.2 (25235) - http://www.bohemiancoding.com/sketch -->
    <title>icon.how-it-works</title>
    <desc>Created with Sketch.</desc>
    <defs></defs>
    <g id="Page-1" stroke="none" stroke-width="1" fill="none" fill-rule="evenodd" sketch:type="MSPage">
        <g id="Home" sketch:type="MSArtboardGroup" transform="translate(-334.000000, -1760.000000)">
            <g id="Professional" sketch:type="MSLayerGroup" transform="translate(0.000000, 1627.000000)">
                <g id="Group-2" transform="translate(185.000000, 133.000000)" sketch:type="MSShapeGroup">
                    <g id="Works" transform="translate(126.000000, 0.000000)">
                        <g id="icon.how-it-works" transform="translate(23.000000, 0.000000)">
                            <rect id="Rectangle-5" fill="#FFFFFF" x="0" y="0" width="80" height="80"></rect>
                            <path d="M64.0024879,55.6636604 C61.0853677,55.6636604 58.6720572,58.0831908 58.6720572,60.9940911 C58.6720572,63.9547504 61.0853677,66.3307417 64.0024879,66.3307417 C66.9631473,66.3307417 69.3329187,63.9112113 69.3329187,60.9940911 C69.3329187,58.0831908 66.9196081,55.6636604 64.0024879,55.6636604 L64.0024879,55.6636604 Z M64.0024879,12.9953351 C61.0853677,12.9953351 58.6720572,15.4148655 58.6720572,18.3319857 C58.6720572,21.2864251 61.0853677,23.6624164 64.0024879,23.6624164 C66.9631473,23.6624164 69.3329187,21.242886 69.3329187,18.3319857 C69.3329187,15.4148655 66.9196081,12.9953351 64.0024879,12.9953351 L64.0024879,12.9953351 Z M80,63.9112113 C80,64.5394184 74.6260302,65.1240865 73.7925673,65.2049448 C73.462914,65.9948686 73.0399627,66.6977142 72.5423729,67.3694604 C72.9217851,68.2029233 74.6695693,72.3702379 74.6695693,73.1228425 C74.6695693,73.2410201 74.6260302,73.3280983 74.5016327,73.4151765 C73.997823,73.7012906 69.5443943,76.3696159 69.3329187,76.3696159 C68.7980096,76.3696159 65.6694138,72.2023014 65.2526823,71.5803141 C64.8359509,71.6176333 64.4192194,71.6611724 64.0024879,71.6611724 C63.5857565,71.6611724 63.169025,71.6176333 62.7522936,71.5803141 C62.3355621,72.2023014 59.2069663,76.3696159 58.6720572,76.3696159 C58.4605816,76.3696159 54.0071529,73.7012906 53.5033432,73.4151765 C53.3789457,73.3280983 53.3354066,73.2037008 53.3354066,73.1228425 C53.3354066,72.4075571 55.0831908,68.2029233 55.462603,67.3694604 C54.9650132,66.6977142 54.5420619,65.9948686 54.2124086,65.2049448 C53.3789457,65.1240865 47.998756,64.5394184 47.998756,63.9112113 L47.998756,58.0831908 C47.998756,57.4549837 53.3789457,56.8703157 54.2124086,56.7894573 C54.5420619,56.0368527 54.9650132,55.2842482 55.462603,54.6187218 C55.0831908,53.7852589 53.3354066,49.5744052 53.3354066,48.8715596 C53.3354066,48.7907013 53.3789457,48.660084 53.5033432,48.5792256 C54.0071529,48.3304307 58.4605816,45.6683253 58.6720572,45.6683253 C59.2069663,45.6683253 62.3355621,49.7921008 62.7522936,50.4078681 C63.169025,50.3705489 63.5857565,50.3332297 64.0024879,50.3332297 C64.4192194,50.3332297 64.8359509,50.3705489 65.2526823,50.4078681 C66.4220183,48.7907013 67.6722127,47.1610947 69.0841238,45.7429638 L69.3329187,45.6683253 C69.5443943,45.6683253 73.997823,48.2868916 74.5016327,48.5792256 C74.6260302,48.660084 74.6695693,48.7907013 74.6695693,48.8715596 C74.6695693,49.6179443 72.9217851,53.7852589 72.5423729,54.6187218 C73.0399627,55.2842482 73.462914,56.0368527 73.7925673,56.7894573 C74.6260302,56.8703157 80,57.4549837 80,58.0831908 L80,63.9112113 Z M80,21.242886 C80,21.8710931 74.6260302,22.4557612 73.7925673,22.5366195 C73.462914,23.3265433 73.0399627,24.0356088 72.5423729,24.7011351 C72.9217851,25.534598 74.6695693,29.7019126 74.6695693,30.4545172 C74.6695693,30.5789146 74.6260302,30.659773 74.5016327,30.7468512 C73.997823,31.0391852 69.5443943,33.7012906 69.3329187,33.7012906 C68.7980096,33.7012906 65.6694138,29.5339761 65.2526823,28.9119888 C64.8359509,28.9555279 64.4192194,28.9928471 64.0024879,28.9928471 C63.5857565,28.9928471 63.169025,28.9555279 62.7522936,28.9119888 C62.3355621,29.5339761 59.2069663,33.7012906 58.6720572,33.7012906 C58.4605816,33.7012906 54.0071529,31.0391852 53.5033432,30.7468512 C53.3789457,30.659773 53.3354066,30.5353755 53.3354066,30.4545172 C53.3354066,29.7454517 55.0831908,25.534598 55.462603,24.7011351 C54.9650132,24.0356088 54.5420619,23.3265433 54.2124086,22.5366195 C53.3789457,22.4557612 47.998756,21.8710931 47.998756,21.242886 L47.998756,15.4148655 C47.998756,14.7866584 53.3789457,14.2019904 54.2124086,14.121132 C54.5420619,13.3685274 54.9650132,12.6221427 55.462603,11.9566164 C55.0831908,11.1231535 53.3354066,6.9122998 53.3354066,6.20323433 C53.3354066,6.12237599 53.3789457,5.99797854 53.5033432,5.91090033 C54.0071529,5.66210543 58.4605816,3 58.6720572,3 C59.2069663,3 62.3355621,7.12377546 62.7522936,7.74576271 C63.169025,7.70844348 63.5857565,7.66490437 64.0024879,7.66490437 C64.4192194,7.66490437 64.8359509,7.70844348 65.2526823,7.74576271 C66.4220183,6.12237599 67.6722127,4.4927694 69.0841238,3.08085834 L69.3329187,3 C69.5443943,3 73.997823,5.62478619 74.5016327,5.91090033 C74.6260302,5.99797854 74.6695693,6.12237599 74.6695693,6.20323433 C74.6695693,6.95583891 72.9217851,11.1231535 72.5423729,11.9566164 C73.0399627,12.6221427 73.462914,13.3685274 73.7925673,14.121132 C74.6260302,14.2019904 80,14.7866584 80,15.4148655 L80,21.242886 Z M26.6708132,28.9928471 C20.7930337,28.9928471 16.0037319,33.7883688 16.0037319,39.6599285 C16.0037319,45.537708 20.7930337,50.3332297 26.6708132,50.3332297 C32.5423729,50.3332297 37.3316747,45.537708 37.3316747,39.6599285 C37.3316747,33.7883688 32.5423729,28.9928471 26.6708132,28.9928471 L26.6708132,28.9928471 Z M53.3354066,43.584668 C53.3354066,44.1257969 52.9186752,44.7477842 52.3775463,44.8286425 L45.9150987,45.830042 C45.5854455,46.9122998 45.1251749,47.9572384 44.584046,48.9959571 C45.7533821,50.6628829 46.9973566,52.1991914 48.3346291,53.7852589 C48.4963458,54.0340538 48.6269631,54.2828487 48.6269631,54.6187218 C48.6269631,54.9110558 48.5398849,55.2033898 48.3346291,55.4148655 C47.5011662,56.5406624 42.830042,61.6222982 41.6296066,61.6222982 C41.2937335,61.6222982 41.0013995,61.4916809 40.7463847,61.3299642 L35.9633028,57.5793811 C34.9183642,58.12051 33.8796455,58.5372415 32.7476287,58.8731146 C32.5423729,60.9940911 32.3371171,63.2892241 31.7959882,65.3293422 C31.6218318,65.9077904 31.124242,66.3307417 30.5457938,66.3307417 L22.7958327,66.3307417 C22.2111647,66.3307417 21.6264967,65.8704712 21.5394184,65.2858031 L20.587778,58.9104338 C19.4993003,58.5807806 18.4605816,58.12051 17.4591821,57.6167004 L12.5454828,61.3299642 C12.3340072,61.53522 12.0043539,61.6222982 11.7058,61.6222982 C11.3823667,61.6222982 11.0900327,61.4916809 10.8350179,61.2864251 C9.75276007,60.2850257 4.8390608,55.8253771 4.8390608,54.6187218 C4.8390608,54.3263878 4.95723838,54.0775929 5.13139481,53.828798 C6.33805007,52.2427305 7.58202457,50.7002021 8.7948997,49.0768154 C8.21023169,47.9572384 7.71264189,46.8314415 7.33322967,45.6683253 L1.00761934,44.660706 C0.422951329,44.5798476 0,44.0387187 0,43.4540507 L0,35.7414088 C0,35.2002799 0.422951329,34.5782926 0.964080236,34.4974343 L7.42030788,33.4960348 C7.756181,32.413777 8.21023169,31.3688384 8.7513606,30.3301197 C7.58202457,28.6631939 6.33805007,27.1206655 5.00077748,25.534598 C4.8390608,25.2858031 4.70844348,24.9934691 4.70844348,24.7011351 C4.70844348,24.415021 4.79552169,24.122687 5.00077748,23.8738921 C5.8342404,22.7480952 10.5053646,17.7037786 11.7058,17.7037786 C12.0416731,17.7037786 12.3340072,17.828176 12.5890219,17.9961126 L17.3721039,21.7466957 C18.4170425,21.2055668 19.4557612,20.7888353 20.587778,20.415643 C20.7930337,18.3319857 20.9982895,16.0368527 21.5394184,13.9967346 C21.7135749,13.4120666 22.2111647,12.9953351 22.7958327,12.9953351 L30.5457938,12.9953351 C31.124242,12.9953351 31.70891,13.4556057 31.7959882,14.0402737 L32.7476287,20.415643 C33.8361064,20.7452962 34.8748251,21.2055668 35.8762245,21.7031566 L40.7899238,17.9961126 C41.0387187,17.7908568 41.3310527,17.7037786 41.6296066,17.7037786 C41.9592598,17.7037786 42.245374,17.828176 42.5003887,18.0396517 C43.5826466,19.0348313 48.4963458,23.538019 48.4963458,24.7011351 C48.4963458,24.9934691 48.3781682,25.242264 48.2040118,25.4972788 C46.9973566,27.1206655 45.7533821,28.6196548 44.584046,30.2492614 C45.1251749,31.3688384 45.6227647,32.4946354 46.002177,33.6577515 L52.3340072,34.6218318 C52.9186752,34.7462292 53.3354066,35.2873581 53.3354066,35.8720261 L53.3354066,43.584668 Z" fill="#DE3626"></path>
                        </g>
                    </g>
                </g>
            </g>
        </g>
    </g>
</svg>