<?xml version="1.0" encoding="UTF-8" standalone="no"?>
<svg width="68px" height="80px" viewBox="0 0 68 80" version="1.1" xmlns="http://www.w3.org/2000/svg" xmlns:xlink="http://www.w3.org/1999/xlink" xmlns:sketch="http://www.bohemiancoding.com/sketch/ns">
    <!-- Generator: Sketch 3.5.2 (25235) - http://www.bohemiancoding.com/sketch -->
    <title>icon.pdf</title>
    <desc>Created with Sketch.</desc>
    <defs></defs>
    <g id="Page-1" stroke="none" stroke-width="1" fill="none" fill-rule="evenodd" sketch:type="MSPage">
        <g id="Home" sketch:type="MSArtboardGroup" transform="translate(-373.000000, -933.000000)" fill="#DE3626">
            <g id="Introduction" sketch:type="MSLayerGroup">
                <g id="Professional-Stuff" transform="translate(300.000000, 902.000000)" sketch:type="MSShapeGroup">
                    <g id="Group" transform="translate(44.000000, 31.000000)">
                        <g id="icon.pdf" transform="translate(29.000000, 0.000000)">
                            <path d="M48.2722838,52.3883527 C50.4250111,53.1783715 52.4070953,53.6092908 53.7262971,53.6092908 C54.1200887,53.6092908 54.3432373,53.6092908 54.5138803,53.5701163 C54.5138803,53.5244128 54.4679379,53.4787092 54.4219956,53.4395347 C54.2054102,53.217546 53.0634146,52.3883527 48.2722838,52.3883527 L48.2722838,52.3883527 Z M45.0169401,23.0401351 L61.5496231,23.0401351 C61.2805322,22.302349 60.8933038,21.5580338 60.5848337,21.251167 L46.8218182,7.5596848 C46.5133481,7.25281801 45.7651441,6.86107317 45.0169401,6.59990994 L45.0169401,23.0401351 Z M31.3917517,31.0056135 C31.5230155,30.3004728 31.608337,29.6475647 31.7002217,29.0795347 C31.7855432,28.3352195 31.9168071,27.7214859 32.0021286,27.1991595 C32.048071,27.0685779 32.0940133,26.9771707 32.1793348,26.8465891 C32.1399557,26.8074146 32.1399557,26.7160075 32.0940133,26.6311295 C32.048071,25.8411107 31.7855432,25.3579587 31.5230155,25.0510919 C31.5230155,25.1424991 31.4770732,25.1816735 31.4770732,25.2273771 C31.0373392,26.4548443 31.0373392,28.5572083 31.3917517,31.0056135 L31.3917517,31.0056135 Z M38.512816,50.5993846 C38.073082,50.2468143 37.6333481,49.9399475 37.2395565,49.5873771 C35.0868293,47.7070019 33.1506874,45.0823114 31.6542794,41.8961201 C30.8207539,44.559985 29.5868736,47.4001351 28.0051441,50.5079775 C27.3488248,51.7354447 26.6859424,52.9563827 26.0230599,54.1381463 C29.8953437,52.6103415 34.2007982,51.3828743 38.512816,50.5993846 L38.512816,50.5993846 Z M20.004612,58.558334 C16.7033259,61.0916173 14.6359202,63.9774709 13.9796009,65.4661013 C15.2988027,64.8523677 17.1890022,62.9719925 20.004612,58.558334 L20.004612,58.558334 Z M42.9954767,49.9399475 C44.8462971,49.7179587 46.5592905,49.6330807 48.14102,49.6330807 C51.0878936,49.6330807 54.8223503,49.985651 55.9249667,51.7746191 C56.2334368,52.2120675 56.4959645,53.0020863 56.0102882,54.0532683 C55.9643459,54.0924428 55.9249667,54.1838499 55.8790244,54.2230244 L55.8790244,54.268728 C55.7477605,55.0587467 55.084878,55.9271144 52.7615078,55.9271144 C49.945898,55.9271144 45.6798226,54.6670019 41.984745,52.7409231 C35.8744124,53.3938311 29.4556098,54.7518799 24.7563636,56.3710919 C20.2277605,64.068878 16.7492683,67.8296285 14.1108647,67.8296285 C13.677694,67.8296285 13.2773392,67.7382214 12.8835477,67.5227617 L11.8268736,67.0004353 C11.6956098,66.9547317 11.6496674,66.8633246 11.5643459,66.7784465 C11.3411973,66.5564578 11.1705543,66.0798349 11.3018182,65.2049381 C11.7415521,63.1939812 14.1108647,59.8249756 19.564878,56.9848255 C19.9192905,56.7628368 20.3590244,56.8934184 20.5756098,57.2459887 C20.6215521,57.2851632 20.6609313,57.3765704 20.6609313,57.4222739 C22.0260754,55.1893283 23.6078049,52.3491782 25.3667406,48.8038874 C27.3488248,44.8668518 28.884612,41.0146942 29.941286,37.3453508 C28.5301996,32.579122 28.0904656,27.6757824 28.884612,24.7899287 C29.193082,23.6995722 29.8494013,23.0401351 30.7288692,23.0401351 L31.6542794,23.0401351 L31.7002217,23.0401351 C32.356541,23.0401351 32.8881596,23.2621238 33.2360089,23.6995722 C33.7676275,24.3133058 33.8988914,25.2730807 33.6363636,26.676833 C33.5904213,26.8074146 33.5444789,26.9379962 33.4591574,27.0228743 C33.5050998,27.1534559 33.5050998,27.238334 33.5050998,27.3689156 L33.5050998,28.6877899 C33.4591574,31.4430619 33.4132151,34.0612233 32.8881596,37.0841876 C34.4239468,41.6741313 36.7079379,45.3891782 39.3069623,47.4915422 C40.4030155,48.366439 41.6368958,49.1499287 42.9954767,49.9399475 L42.9954767,49.9399475 Z M61.8974723,28.6420863 L43.6124169,28.6420863 C41.2824834,28.6420863 39.3922838,26.7617111 39.3922838,24.4438874 L39.3922838,6.24733959 L5.62465632,6.24733959 L5.62465632,73.4250507 L61.8974723,73.4250507 L61.8974723,28.6420863 Z M67.5286918,24.4438874 L67.5286918,74.828803 C67.5286918,77.1466266 65.6384922,79.0270019 63.3085588,79.0270019 L4.22013304,79.0270019 C1.89019956,79.0270019 0,77.1466266 0,74.828803 L0,4.85011632 C0,2.53229268 1.89019956,0.651917448 4.22013304,0.651917448 L43.6124169,0.651917448 C45.9423503,0.651917448 49.197694,2.00343715 50.8253659,3.62264916 L64.542439,17.2684278 C66.1701109,18.8876398 67.5286918,22.1260638 67.5286918,24.4438874 L67.5286918,24.4438874 Z" id="Fill-1"></path>
                        </g>
                    </g>
                </g>
            </g>
        </g>
    </g>
</svg>