<?xml version="1.0" encoding="UTF-8" standalone="no"?>
<svg width="80px" height="80px" viewBox="0 0 80 80" version="1.1" xmlns="http://www.w3.org/2000/svg" xmlns:xlink="http://www.w3.org/1999/xlink" xmlns:sketch="http://www.bohemiancoding.com/sketch/ns">
    <!-- Generator: Sketch 3.5.2 (25235) - http://www.bohemiancoding.com/sketch -->
    <title>icon.how-it-affects</title>
    <desc>Created with Sketch.</desc>
    <defs></defs>
    <g id="Page-1" stroke="none" stroke-width="1" fill="none" fill-rule="evenodd" sketch:type="MSPage">
        <g id="Home" sketch:type="MSArtboardGroup" transform="translate(-712.000000, -1760.000000)">
            <g id="Professional" sketch:type="MSLayerGroup" transform="translate(0.000000, 1627.000000)">
                <g id="Group-2" transform="translate(185.000000, 133.000000)" sketch:type="MSShapeGroup">
                    <g id="Affects" transform="translate(504.000000, 0.000000)">
                        <g id="icon.how-it-affects" transform="translate(23.000000, 0.000000)">
                            <rect id="Rectangle-5" fill="#FFFFFF" x="0" y="0" width="80" height="80"></rect>
                            <path d="M80,72.9797159 C80,73.7841373 79.3735422,74.4090597 78.5738087,74.4090597 L69.9966678,74.4090597 C69.1969344,74.4090597 68.5704765,73.7841373 68.5704765,72.9797159 L68.5704765,7.42934381 C68.5704765,6.62492241 69.1969344,6 69.9966678,6 L78.5738087,6 C79.3735422,6 80,6.62492241 80,7.42934381 L80,72.9797159 Z M62.859047,72.9797159 C62.859047,73.7841373 62.2325891,74.4090597 61.4328557,74.4090597 L52.8557148,74.4090597 C52.0559813,74.4090597 51.4295235,73.7841373 51.4295235,72.9797159 L51.4295235,30.2257156 C51.4295235,29.4279423 52.0559813,28.8030199 52.8557148,28.8030199 L61.4328557,28.8030199 C62.2325891,28.8030199 62.859047,29.4279423 62.859047,30.2257156 L62.859047,72.9797159 Z M45.7114295,72.9797159 C45.7114295,73.7841373 45.0916361,74.4090597 44.2919027,74.4090597 L35.7080973,74.4090597 C34.9083639,74.4090597 34.2885705,73.7841373 34.2885705,72.9797159 L34.2885705,47.3313046 C34.2885705,46.5268832 34.9083639,45.9086089 35.7080973,45.9086089 L44.2919027,45.9086089 C45.0916361,45.9086089 45.7114295,46.5268832 45.7114295,47.3313046 L45.7114295,72.9797159 Z M28.5704765,72.9797159 C28.5704765,73.7841373 27.9440187,74.4090597 27.1442852,74.4090597 L18.5671443,74.4090597 C17.7674109,74.4090597 17.140953,73.7841373 17.140953,72.9797159 L17.140953,58.7261664 C17.140953,57.9283931 17.7674109,57.3101188 18.5671443,57.3101188 L27.1442852,57.3101188 C27.9440187,57.3101188 28.5704765,57.9283931 28.5704765,58.7261664 L28.5704765,72.9797159 Z M11.4295235,72.9797159 C11.4295235,73.7841373 10.8030656,74.4090597 10.0033322,74.4090597 L1.42619127,74.4090597 C0.626457847,74.4090597 0,73.7841373 0,72.9797159 L0,64.4368936 C0,63.6324722 0.626457847,63.0075498 1.42619127,63.0075498 L10.0033322,63.0075498 C10.8030656,63.0075498 11.4295235,63.6324722 11.4295235,64.4368936 L11.4295235,72.9797159 Z" fill="#DE3626"></path>
                        </g>
                    </g>
                </g>
            </g>
        </g>
    </g>
</svg>