<?xml version="1.0" encoding="utf-8"?>
<!-- Generator: Adobe Illustrator 18.1.1, SVG Export Plug-In . SVG Version: 6.00 Build 0)  -->
<svg version="1.1" id="Layer_1" xmlns="http://www.w3.org/2000/svg" xmlns:xlink="http://www.w3.org/1999/xlink" x="0px" y="0px"
	 viewBox="0 0 500 500" enable-background="new 0 0 500 500" xml:space="preserve">
<rect fill="#F9F8F4" width="500" height="500"/>
<path fill="#979692" d="M139,109c-35.9,0-65,29.1-65,65s29.1,65,65,65s65-29.1,65-65S174.9,109,139,109z M139,229
	c-30.4,0-55-24.6-55-55s24.6-55,55-55s55,24.6,55,55S169.4,229,139,229z"/>
<path fill="#979692" d="M274,264v130h130V264H274z M394,384H284V274h110V384z"/>
<path fill="#979692" d="M274,109v130h130V109H274z M394,229H284V119h110V229z"/>
<polygon fill="#979692" points="263.6,179 242,166.5 242,174 214,174 214,184 242,184 242,191.5 "/>
<polygon fill="#979692" points="263.6,334 242,321.5 242,329 139,329 139,249 129,249 129,339 242,339 242,346.5 "/>
</svg>
