<?xml version="1.0" encoding="UTF-8" standalone="no"?>
<svg width="80px" height="80px" viewBox="0 0 80 80" version="1.1" xmlns="http://www.w3.org/2000/svg" xmlns:xlink="http://www.w3.org/1999/xlink">
    <!-- Generator: Sketch 3.6.1 (26313) - http://www.bohemiancoding.com/sketch -->
    <title>icon.how-it-fails</title>
    <desc>Created with Sketch.</desc>
    <defs></defs>
    <g id="Page-1" stroke="none" stroke-width="1" fill="none" fill-rule="evenodd">
        <g id="icon.how-it-fails">
            <rect id="Rectangle-5" fill-opacity="0" fill="#FFFFFF" x="0" y="0" width="80" height="80"></rect>
            <path d="M46.6673146,55.0568568 C46.6673146,54.1160463 45.936437,53.3307416 45.0500535,53.3307416 L35.0510254,53.3307416 C34.1179901,53.3307416 33.3326854,54.1160463 33.3326854,55.0568568 L33.3326854,64.9470308 C33.3326854,65.8878414 34.1179901,66.6653708 35.0510254,66.6653708 L45.0500535,66.6653708 C45.936437,66.6653708 46.6673146,65.8878414 46.6673146,64.9470308 L46.6673146,55.0568568 L46.6673146,55.0568568 Z M47.4992711,14.6875304 C47.4992711,14.3220916 47.3437652,13.9566527 46.9783264,13.7544951 C46.6673146,13.4901351 46.1930217,13.3346292 45.7342793,13.3346292 L34.2657207,13.3346292 C33.8069783,13.3346292 33.3326854,13.4901351 33.0216736,13.7544951 C32.6562348,13.9566527 32.5007289,14.3220916 32.5007289,14.6875304 L33.3871125,47.0327534 C33.3871125,47.7636311 34.1724171,48.3390028 35.1598795,48.3390028 L44.7934688,48.3390028 C45.7342793,48.3390028 46.5040334,47.7636311 46.5584605,47.0327534 L47.4992711,14.6875304 L47.4992711,14.6875304 Z M80,39.9961124 C80,62.0857226 62.0779473,80 40.0038876,80 C17.9220527,80 0,62.0857226 0,39.9961124 C0,17.9142774 17.9220527,0 40.0038876,0 C62.0779473,0 80,17.9142774 80,39.9961124 L80,39.9961124 L80,39.9961124 Z" id="Shape" fill="#9B9B9B"></path>
        </g>
    </g>
</svg>