<?xml version="1.0" encoding="UTF-8" standalone="no"?>
<svg width="80px" height="80px" viewBox="0 0 80 80" version="1.1" xmlns="http://www.w3.org/2000/svg" xmlns:xlink="http://www.w3.org/1999/xlink">
    <!-- Generator: Sketch 3.6.1 (26313) - http://www.bohemiancoding.com/sketch -->
    <title>icon.how-it-looks</title>
    <desc>Created with Sketch.</desc>
    <defs></defs>
    <g id="Page-1" stroke="none" stroke-width="1" fill="none" fill-rule="evenodd">
        <g id="icon.how-it-looks">
            <rect id="Rectangle-5" fill-opacity="0" fill="#FFFFFF" x="0" y="0" width="80" height="80"></rect>
            <path d="M69.3320893,61.2026144 L10.6616904,61.2026144 L10.6616904,53.2228427 L23.9981339,39.9190866 L30.6601353,46.5709647 L51.9959568,25.2874369 L69.3320893,42.5810788 L69.3320893,61.2026144 L69.3320893,61.2026144 Z M18.6610683,34.6013072 C14.2508359,34.6013072 10.6616904,31.0271637 10.6616904,26.6215355 C10.6616904,22.2159073 14.2508359,18.6417639 18.6610683,18.6417639 C23.0775212,18.6417639 26.6666667,22.2159073 26.6666667,26.6215355 C26.6666667,31.0271637 23.0775212,34.6013072 18.6610683,34.6013072 L18.6610683,34.6013072 L18.6610683,34.6013072 Z M6.66822176,13.3177794 C5.95910116,13.3177794 5.33084519,13.9444955 5.33084519,14.6518781 L5.33084519,65.1925002 C5.33084519,65.8998828 5.95910116,66.5203938 6.66822176,66.5203938 L73.3317782,66.5203938 C74.0408988,66.5203938 74.6629345,65.8998828 74.6629345,65.1925002 L74.6629345,14.6518781 C74.6629345,13.9444955 74.0408988,13.3177794 73.3317782,13.3177794 L6.66822176,13.3177794 L6.66822176,13.3177794 Z M80,65.1925002 C80,68.8473101 76.995568,71.8443783 73.3317782,71.8443783 L6.66822176,71.8443783 C2.99821165,71.8443783 0,68.8473101 0,65.1925002 L0,14.6518781 C0,10.9908631 2.99821165,8 6.66822176,8 L73.3317782,8 C76.995568,8 80,10.9908631 80,14.6518781 L80,65.1925002 L80,65.1925002 Z" id="Shape" fill="#9B9B9B"></path>
        </g>
    </g>
</svg>