<?xml version="1.0" encoding="UTF-8" standalone="no"?>
<svg width="80px" height="80px" viewBox="0 0 80 80" version="1.1" xmlns="http://www.w3.org/2000/svg" xmlns:xlink="http://www.w3.org/1999/xlink" xmlns:sketch="http://www.bohemiancoding.com/sketch/ns">
    <!-- Generator: Sketch 3.5.2 (25235) - http://www.bohemiancoding.com/sketch -->
    <title>icon.linkedin</title>
    <desc>Created with Sketch.</desc>
    <defs></defs>
    <g id="Page-1" stroke="none" stroke-width="1" fill="none" fill-rule="evenodd" sketch:type="MSPage">
        <g id="Home" sketch:type="MSArtboardGroup" transform="translate(-553.000000, -933.000000)">
            <g id="Introduction" sketch:type="MSLayerGroup">
                <g id="Professional-Stuff" transform="translate(300.000000, 902.000000)" sketch:type="MSShapeGroup">
                    <g id="LinkedIn" transform="translate(230.000000, 31.000000)">
                        <g id="icon.linkedin" transform="translate(23.000000, 0.000000)">
                            <g id="Group-3" fill="#007AB5">
                                <path d="M73.569269,0.000275862069 L5.86444138,0.000275862069 C2.62857931,0.000275862069 0.000165517241,2.56468966 0.000165517241,5.72496552 L0.000165517241,73.7166897 C0.000165517241,76.8802759 2.62857931,79.448 5.86444138,79.448 L73.569269,79.448 C76.8106483,79.448 79.4506483,76.8802759 79.4506483,73.7166897 L79.4506483,5.72496552 C79.4506483,2.56468966 76.8106483,0.000275862069 73.569269,0.000275862069 L60.0625,11.3828125" id="Fill-1"></path>
                            </g>
                            <path d="M17.6740414,10.9385931 C21.4412138,10.9385931 24.5032828,14.0001103 24.5032828,17.7683862 C24.5032828,21.5405241 21.4412138,24.6025931 17.6740414,24.6025931 C13.8969379,24.6025931 10.8403862,21.5405241 10.8403862,17.7683862 C10.8403862,14.0001103 13.8969379,10.9385931 17.6740414,10.9385931 L17.6740414,10.9385931 Z M11.778869,29.7854897 L23.5631448,29.7854897 L23.5631448,67.7005241 L11.778869,67.7005241 L11.778869,29.7854897 Z" id="Fill-4" fill="#FEFEFE"></path>
                            <path d="M30.9553103,29.7853241 L42.2568276,29.7853241 L42.2568276,34.9665655 L42.4151724,34.9665655 C43.9881379,31.9850483 47.832,28.8424276 53.5649655,28.8424276 C65.4982069,28.8424276 67.7006897,36.695669 67.7006897,46.9031172 L67.7006897,67.7003586 L55.9246897,67.7003586 L55.9246897,49.2617379 C55.9246897,44.8656 55.8441379,39.2098759 49.8016552,39.2098759 C43.6703448,39.2098759 42.7291034,43.9988414 42.7291034,48.9439448 L42.7291034,67.7003586 L30.9553103,67.7003586 L30.9553103,29.7853241 Z" id="Fill-6" fill="#FEFEFE"></path>
                        </g>
                    </g>
                </g>
            </g>
        </g>
    </g>
</svg>