<?xml version="1.0" encoding="UTF-8" standalone="no"?>
<svg width="200px" height="76px" viewBox="0 0 200 76" version="1.1" xmlns="http://www.w3.org/2000/svg" xmlns:xlink="http://www.w3.org/1999/xlink">
  <g id="Page-1" stroke="none" stroke-width="1" fill="none" fill-rule="evenodd" sketch:type="MSPage">
      <g id="Home" sketch:type="MSArtboardGroup" transform="translate(-400.000000, -212.000000)" fill="#FFFFFF">
          <g id="Introduction" sketch:type="MSLayerGroup">
              <g id="Bold-Logo" transform="translate(400.000000, 212.000000)" sketch:type="MSShapeGroup">
                  <path d="M162,9.71182932 L162,0 L142,0 L142,48 L142.016918,48 C142.54396,63.5532243 155.31843,76 171,76 C187.016258,76 200,63.0162577 200,47 C200,30.9837423 187.016258,18 171,18 C169.294964,18 167.624295,18.1471448 166,18.4294286 L166,39.515549 C167.430098,38.5582717 169.149853,38 171,38 C175.970563,38 180,42.0294373 180,47 C180,51.9705627 175.970563,56 171,56 C166.367446,56 162.552373,52.4999505 162.054929,48 L162,48 L162,9.71182932 L162,9.71182932 Z" id="Rectangle-2" transform="translate(171.000000, 38.000000) scale(-1, 1) translate(-171.000000, -38.000000) "></path>
                  <rect id="Rectangle-2" x="120" y="0" width="20" height="74"></rect>
                  <path d="M89,76 C105.016258,76 118,63.0162577 118,47 C118,30.9837423 105.016258,18 89,18 C72.9837423,18 60,30.9837423 60,47 C60,63.0162577 72.9837423,76 89,76 Z M89,56 C93.9705627,56 98,51.9705627 98,47 C98,42.0294373 93.9705627,38 89,38 C84.0294373,38 80,42.0294373 80,47 C80,51.9705627 84.0294373,56 89,56 Z" id="Oval-6"></path>
                  <path d="M20,9.71182932 L20,0 L0,0 L0,48 L0.0169181977,48 C0.543960399,63.5532243 13.3184301,76 29,76 C45.0162577,76 58,63.0162577 58,47 C58,30.9837423 45.0162577,18 29,18 C27.2949639,18 25.6242952,18.1471448 24,18.4294286 L24,39.515549 C25.430098,38.5582717 27.1498534,38 29,38 C33.9705627,38 38,42.0294373 38,47 C38,51.9705627 33.9705627,56 29,56 C24.3674463,56 20.5523731,52.4999505 20.0549288,48 L20,48 L20,9.71182932 L20,9.71182932 Z" id="Rectangle-2"></path>
              </g>
          </g>
      </g>
  </g>
</svg>
